<?xml version="1.0"?>
<svg xmlns:rdf="http://www.w3.org/1999/02/22-rdf-syntax-ns#" xmlns="http://www.w3.org/2000/svg" xmlns:cc="http://creativecommons.org/ns#" xmlns:dc="http://purl.org/dc/elements/1.1/" xmlns:svg="http://www.w3.org/2000/svg" id="svg14755" viewBox="0 0 230.54 285.48" version="1.1">
  <defs id="defs14757">
    <clipPath id="clipPath8167" clipPathUnits="userSpaceOnUse">
      <path id="path8169" d="m289.85 309.42h9.072v-15.508h-9.072v15.508z"/>
    </clipPath>
    <clipPath id="clipPath8143" clipPathUnits="userSpaceOnUse">
      <path id="path8145" d="m248.72 353.88h44.215v-38.951h-44.215v38.951z"/>
    </clipPath>
    <clipPath id="clipPath8107" clipPathUnits="userSpaceOnUse">
      <path id="path8109" d="m220.63 374.53h14.782v-8.747h-14.782v8.747z"/>
    </clipPath>
    <clipPath id="clipPath8091" clipPathUnits="userSpaceOnUse">
      <path id="path8093" d="m231.84 396.84h6.455v-15.097h-6.455v15.097z"/>
    </clipPath>
    <clipPath id="clipPath8075" clipPathUnits="userSpaceOnUse">
      <path id="path8077" d="m238.55 418.51h6.455v-15.097h-6.455v15.097z"/>
    </clipPath>
    <clipPath id="clipPath8059" clipPathUnits="userSpaceOnUse">
      <path id="path8061" d="m256.77 486.87h47.608v-20.556h-47.608v20.556z"/>
    </clipPath>
    <clipPath id="clipPath8035" clipPathUnits="userSpaceOnUse">
      <path id="path8037" d="m316.73 437.95h29.033v-4.868h-29.033v4.868z"/>
    </clipPath>
    <clipPath id="clipPath8019" clipPathUnits="userSpaceOnUse">
      <path id="path8021" d="m260.05 437.95h29.032v-4.868h-29.032v4.868z"/>
    </clipPath>
    <clipPath id="clipPath7971" clipPathUnits="userSpaceOnUse">
      <path id="path7973" d="m320.85 441.07h9.13v-4.524h-9.13v4.524z"/>
    </clipPath>
    <clipPath id="clipPath7955" clipPathUnits="userSpaceOnUse">
      <path id="path7957" d="m264.33 443.24h9.13v-4.524h-9.13v4.524z"/>
    </clipPath>
    <clipPath id="clipPath7931" clipPathUnits="userSpaceOnUse">
      <path id="path7933" d="m270.09 423.75h8.682v-8.43h-8.682v8.43z"/>
    </clipPath>
    <clipPath id="clipPath7907" clipPathUnits="userSpaceOnUse">
      <path id="path7909" d="m319.95 423.75h8.684v-8.43h-8.684v8.43z"/>
    </clipPath>
    <clipPath id="clipPath7847" clipPathUnits="userSpaceOnUse">
      <path id="path7849" d="m286.72 356.12h33.608v-4.51h-33.608v4.51z"/>
    </clipPath>
    <clipPath id="clipPath7825" clipPathUnits="userSpaceOnUse">
      <path id="path7827" d="m347.18 310.47h24.291v-22.194h-24.291v22.194z"/>
    </clipPath>
    <clipPath id="clipPath7809" clipPathUnits="userSpaceOnUse">
      <path id="path7811" d="m205.16 359.38h13.811v-10.525h-13.811v10.525z"/>
    </clipPath>
    <clipPath id="clipPath7789" clipPathUnits="userSpaceOnUse">
      <path id="path7791" d="m236.25 310.47h24.291v-22.194h-24.291v22.194z"/>
    </clipPath>
  </defs>
  <g id="layer1" transform="translate(-657.81 -530.37)">
    <g id="g7777" transform="matrix(1.25 0 0 -1.25 855.73 755.45)">
      <path id="path7779" d="m0 0-5.064 5.064-10.794-9.83 2.357-6.381l13.501 11.147z" fill="#f9dec5"/>
    </g>
    <g id="g7781" transform="matrix(1.25 0 0 -1.25 731.96 763.1)">
      <path id="path7783" d="m0 0s-13.653-31.874-24.341-22.532c-10.689 9.341-18.598 59.441-19.878 61.152l14.075 4.53s12.563-27.279 14.232-41.368l1.773 8.997 14.139-10.779z" fill="#f9dec5"/>
    </g>
    <g id="g7785" transform="matrix(1.25 0 0 -1.25 404.63 1151.6)">
      <g id="g7793">
        <g id="g7795" opacity=".2" clip-path="url(#clipPath7789)">
          <g id="g7797" transform="translate(260.54 310.47)">
            <path id="path7799" d="m0 0s-9.821-22.167-18.485-22.194-4.659 0.111-5.806 6.662 8.822-8.416 24.291 15.532" fill="#fff"/>
          </g>
        </g>
      </g>
    </g>
    <g id="g7801" transform="matrix(1.25 0 0 -1.25 693.16 710)">
      <path id="path7803" d="m0 0c0-4.468-6.33-8.09-14.139-8.09-7.808 0-14.138 3.622-14.138 8.09s6.33 8.09 14.138 8.09c7.809 0 14.139-3.622 14.139-8.09" fill="#f9dec5"/>
    </g>
    <g id="g7805" transform="matrix(1.25 0 0 -1.25 404.63 1151.6)">
      <g id="g7813">
        <g id="g7815" opacity=".2" clip-path="url(#clipPath7809)">
          <g id="g7817" transform="translate(218.97 359.38)">
            <path id="path7819" d="m0 0s-12.462-2.344-8.917-10.525-15.606 9.182 8.917 10.525" fill="#fff"/>
          </g>
        </g>
      </g>
    </g>
    <g id="g7821" transform="matrix(1.25 0 0 -1.25 404.63 1151.6)">
      <g id="g7829">
        <g id="g7831" opacity=".2" clip-path="url(#clipPath7825)">
          <g id="g7833" transform="translate(347.18 310.47)">
            <path id="path7835" d="m0 0s9.82-22.167 18.484-22.194 4.661 0.111 5.807 6.662-8.822-8.416-24.291 15.532" fill="#fff"/>
          </g>
        </g>
      </g>
    </g>
    <g id="g7837" transform="matrix(1.25 0 0 -1.25 762.9 706.98)">
      <path id="path7839" d="m0 0s3.452-0.603 5.285 1.229h23.521s1.691-1.717 4.968-0.858l2.75-8.144-42.771 2.362 6.247 5.411z" fill="#f9dec5"/>
    </g>
    <path id="path7841" d="m798.9 705.44h-29.401v-26.132h29.401v26.132z" fill="#f9dec5"/>
    <g id="g7843" transform="matrix(1.25 0 0 -1.25 404.63 1151.6)">
      <g id="g7851">
        <g id="g7853" opacity=".5" clip-path="url(#clipPath7847)">
          <g id="g7855" transform="translate(320.26 356.06)">
            <path id="path7857" d="m0 0c-11.557-6.546-24.215-2.349-29.646 0.061-1.615-0.686-3.491-0.483-3.896-0.426 4.442-2.529 10.166-4.084 16.474-4.084 6.619 0 12.613 1.706 17.133 4.461-0.022-0.006-0.044-0.006-0.065-0.012" fill="#f7931e"/>
          </g>
        </g>
      </g>
    </g>
    <g id="g7859" transform="matrix(1.25 0 0 -1.25 733.54 641.63)">
      <path id="path7861" d="m0 0c0-7.559-6.127-13.686-13.686-13.686-7.558 0-13.686 6.127-13.686 13.686s6.128 13.687 13.686 13.687c7.559 0 13.686-6.128 13.686-13.687"/>
    </g>
    <g id="g7863" transform="matrix(1.25 0 0 -1.25 725.67 667.87)">
      <path id="path7865" d="m0 0c0-7.559-6.127-13.687-13.686-13.687-7.558 0-13.686 6.128-13.686 13.687s6.128 13.687 13.686 13.687c7.559 0 13.686-6.128 13.686-13.687"/>
    </g>
    <g id="g7867" transform="matrix(1.25 0 0 -1.25 711 687.45)">
      <path id="path7869" d="m0 0c-0.63-1.889-4.925-2.134-9.6-0.571-4.672 1.559-7.949 4.334-7.319 6.221 0.626 1.871 4.917 2.136 9.59 0.577 4.674-1.564 7.953-4.358 7.329-6.227" fill="#db3c70"/>
    </g>
    <g id="g7871" transform="matrix(1.25 0 0 -1.25 696.35 682.29)">
      <path id="path7873" d="m0 0s-11.321-5.71-15.758-3.684 5.774-17.046 24.017-16-3.598 13.545-1.273 16.657c0 0-3.394 2.427-6.986 3.027"/>
    </g>
    <g id="g7875" transform="matrix(1.25 0 0 -1.25 831.46 641.63)">
      <path id="path7877" d="m0 0c0-7.559 6.127-13.686 13.686-13.686 7.558 0 13.686 6.127 13.686 13.686s-6.128 13.687-13.686 13.687c-7.559 0-13.686-6.128-13.686-13.687"/>
    </g>
    <g id="g7879" transform="matrix(1.25 0 0 -1.25 839.34 667.87)">
      <path id="path7881" d="m0 0c0-7.559 6.128-13.687 13.686-13.687s13.686 6.128 13.686 13.687-6.128 13.687-13.686 13.687-13.686-6.128-13.686-13.687"/>
    </g>
    <g id="g7883" transform="matrix(1.25 0 0 -1.25 854.01 687.45)">
      <path id="path7885" d="m0 0c0.63-1.889 4.925-2.134 9.6-0.571 4.672 1.559 7.95 4.334 7.319 6.221-0.625 1.871-4.917 2.136-9.59 0.577-4.674-1.564-7.953-4.358-7.329-6.227" fill="#db3c70"/>
    </g>
    <g id="g7887" transform="matrix(1.25 0 0 -1.25 868.66 682.29)">
      <path id="path7889" d="m0 0s11.32-5.71 15.758-3.684-5.774-17.046-24.017-16 3.597 13.545 1.273 16.657c0 0 3.394 2.427 6.986 3.027"/>
    </g>
    <g id="g7891" transform="matrix(1.25 0 0 -1.25 854.24 609.99)">
      <path id="path7893" d="m0 0c0-35.177-25.492-63.69-56.941-63.69-31.448 0-56.942 28.513-56.942 63.69 0 35.175 25.494 63.689 56.942 63.689 31.446 0 56.938-28.514 56.938-63.689" fill="#f9dec5"/>
    </g>
    <g id="g7895" transform="matrix(1.25 0 0 -1.25 823.32 626.11)">
      <path id="path7897" d="m0 0c0-4.491-3.644-8.135-8.135-8.135s-8.132 3.644-8.132 8.135c0 4.492 3.641 8.133 8.132 8.133s8.135-3.641 8.135-8.133"/>
    </g>
    <g id="g7899" transform="matrix(1.25 0 0 -1.25 814.16 623.02)">
      <path id="path7901" d="m0 0c0-1.809-1.468-3.275-3.275-3.275-1.813 0-3.281 1.466-3.281 3.275 0 1.813 1.468 3.28 3.281 3.28 1.807 0 3.275-1.467 3.275-3.28" fill="#fff"/>
    </g>
    <g id="g7903" transform="matrix(1.25 0 0 -1.25 404.63 1151.6)">
      <g id="g7911">
        <g id="g7913" opacity=".2" clip-path="url(#clipPath7907)">
          <g id="g7915" transform="translate(328.64 419.53)">
            <path id="path7917" d="m0 0c0-2.326-1.944-4.215-4.342-4.215-2.399 0-4.342 1.889-4.342 4.215 0 2.329 1.943 4.215 4.342 4.215 2.398 0 4.342-1.886 4.342-4.215" fill="#fff"/>
          </g>
        </g>
      </g>
    </g>
    <g id="g7919" transform="matrix(1.25 0 0 -1.25 758.37 626.11)">
      <path id="path7921" d="m0 0c0-4.491-3.641-8.135-8.134-8.135-4.491 0-8.135 3.644-8.135 8.135 0 4.492 3.644 8.133 8.135 8.133 4.493 0 8.134-3.641 8.134-8.133"/>
    </g>
    <g id="g7923" transform="matrix(1.25 0 0 -1.25 751.83 623.02)">
      <path id="path7925" d="m0 0c0-1.809-1.468-3.275-3.28-3.275s-3.28 1.466-3.28 3.275c0 1.813 1.468 3.28 3.28 3.28s3.28-1.467 3.28-3.28" fill="#fff"/>
    </g>
    <g id="g7927" transform="matrix(1.25 0 0 -1.25 404.63 1151.6)">
      <g id="g7935">
        <g id="g7937" opacity=".2" clip-path="url(#clipPath7931)">
          <g id="g7939" transform="translate(278.77 419.53)">
            <path id="path7941" d="m0 0c0-2.326-1.943-4.215-4.34-4.215-2.398 0-4.342 1.889-4.342 4.215 0 2.329 1.944 4.215 4.342 4.215 2.397 0 4.34-1.886 4.34-4.215" fill="#fff"/>
          </g>
        </g>
      </g>
    </g>
    <g id="g7943" transform="matrix(1.25 0 0 -1.25 800.54 608.36)">
      <path id="path7945" d="m0 0s14.362 6.389 29.032 2.885-11.919 11.542-29.032-2.885"/>
    </g>
    <g id="g7947" transform="matrix(1.25 0 0 -1.25 765.98 608.36)">
      <path id="path7949" d="m0 0s-14.363 6.389-29.032 2.885 11.919 11.542 29.032-2.885"/>
    </g>
    <g id="g7951" transform="matrix(1.25 0 0 -1.25 404.63 1151.6)">
      <g id="g7959">
        <g id="g7961" opacity=".2" clip-path="url(#clipPath7955)">
          <g id="g7963" transform="translate(264.33 438.72)">
            <path id="path7965" d="m0 0s3.731 4.757 9.131 4.515-4.028-1.13-6.983-4.084-1.773-0.053-2.148-0.431" fill="#fff"/>
          </g>
        </g>
      </g>
    </g>
    <g id="g7967" transform="matrix(1.25 0 0 -1.25 404.63 1151.6)">
      <g id="g7975">
        <g id="g7977" opacity=".2" clip-path="url(#clipPath7971)">
          <g id="g7979" transform="translate(320.85 436.54)">
            <path id="path7981" d="m0 0s3.73 4.756 9.131 4.515-4.028-1.13-6.983-4.084-1.773-0.054-2.148-0.431" fill="#fff"/>
          </g>
        </g>
      </g>
    </g>
    <g id="g7983" transform="matrix(1.25 0 0 -1.25 863.33 609.03)">
      <path id="path7985" d="m0 0c0-7.235-4.162-13.1-9.293-13.1s-9.293 5.865-9.293 13.1c0 7.233 4.162 13.099 9.293 13.099s9.293-5.866 9.293-13.099" fill="#f9dec5"/>
    </g>
    <g id="g7987" transform="matrix(1.25 0 0 -1.25 724.9 608.38)">
      <path id="path7989" d="m0 0c0-7.234-4.162-13.101-9.293-13.101s-9.292 5.867-9.292 13.101 4.161 13.1 9.292 13.1 9.293-5.866 9.293-13.1" fill="#f9dec5"/>
    </g>
    <g id="g7991" transform="matrix(1.25 0 0 -1.25 743.48 645.12)">
      <path id="path7993" d="m0 0c0-3.436-3.561-6.222-7.952-6.222-4.393 0-7.954 2.786-7.954 6.222s3.561 6.22 7.954 6.22c4.391 0 7.952-2.784 7.952-6.22" fill="#f5c384"/>
    </g>
    <g id="g7995" transform="matrix(1.25 0 0 -1.25 842.54 645.49)">
      <path id="path7997" d="m0 0c0-3.6-3.73-6.518-8.329-6.518-4.602 0-8.332 2.918-8.332 6.518 0 3.598 3.73 6.515 8.332 6.515 4.599 0 8.329-2.917 8.329-6.515" fill="#f5c384"/>
    </g>
    <g id="g7999" transform="matrix(1.25 0 0 -1.25 857.29 599.07)">
      <path id="path8001" d="m0 0s-11.756 0.628-6.717-10.498" stroke="#f5c384" stroke-width=".5" fill="none"/>
    </g>
    <g id="g8003" transform="matrix(1.25 0 0 -1.25 856.51 609.98)">
      <path id="path8005" d="m0 0c0-1.977-1.6-3.576-3.573-3.576-1.974 0-3.573 1.599-3.573 3.576 0 1.972 1.599 3.57 3.573 3.57 1.973 0 3.573-1.598 3.573-3.57" fill="#f5c384"/>
    </g>
    <g id="g8007" transform="matrix(1.25 0 0 -1.25 708.26 599.07)">
      <path id="path8009" d="m0 0s11.757 0.628 6.718-10.498" stroke="#f5c384" stroke-width=".5" fill="none"/>
    </g>
    <g id="g8011" transform="matrix(1.25 0 0 -1.25 709.04 609.98)">
      <path id="path8013" d="m0 0c0-1.977 1.599-3.576 3.573-3.576s3.573 1.599 3.573 3.576c0 1.972-1.599 3.57-3.573 3.57s-3.573-1.598-3.573-3.57" fill="#f5c384"/>
    </g>
    <g id="g8015" transform="matrix(1.25 0 0 -1.25 404.63 1151.6)">
      <g id="g8023">
        <g id="g8025" opacity=".5" clip-path="url(#clipPath8019)">
          <g id="g8027" transform="translate(260.05 436.79)">
            <path id="path8029" d="m0 0s16.761 4.33 29.032-3.702-14.532 5.593-29.032 3.702" fill="#f7931e"/>
          </g>
        </g>
      </g>
    </g>
    <g id="g8031" transform="matrix(1.25 0 0 -1.25 404.63 1151.6)">
      <g id="g8039">
        <g id="g8041" opacity=".5" clip-path="url(#clipPath8035)">
          <g id="g8043" transform="translate(345.76 436.79)">
            <path id="path8045" d="m0 0s-16.762 4.33-29.032-3.702 14.532 5.593 29.032 3.702" fill="#f7931e"/>
          </g>
        </g>
      </g>
    </g>
    <g id="g8047" transform="matrix(1.25 0 0 -1.25 713.29 592)">
      <path id="path8049" d="m0 0s-3.167-13.723 0-26.2 2.826 21.876 17.171 32.721-2.099-7.13-2.099-11.196c0 0 11.195 12.245 25.191 12.245 0 0-6.561-3.386-10.146-10.145 0 0 12.946 8.046 24.141 10.495 0 0 8.651-2.355 16.794-10.496 0 0-2.1 8.397-5.948 12.246 0 0 19.576-4.229 24.841-12.246 0 0-0.525 6.821-3.149 9.447 0 0 22.292-10.344 22.292-31.936 0 0 3.305 15.883 1.652 24.545 0 0 5.795-8.703 5.795-12.902 0 0-2.819 62.725-60.713 62.725 0 0-56.426-0.515-61.009-61.009 0 0 2.438 8.957 5.187 11.706"/>
    </g>
    <g id="g8051" transform="matrix(1.25 0 0 -1.25 719.23 574.77)">
      <path id="path8053" d="m0 0s48.402 60.131 102.83-1.645-46.048 44.574-102.83 1.645" fill="#db3c70"/>
    </g>
    <g id="g8055" transform="matrix(1.25 0 0 -1.25 404.63 1151.6)">
      <g id="g8063">
        <g id="g8065" opacity=".2" clip-path="url(#clipPath8059)">
          <g id="g8067" transform="translate(256.77 466.31)">
            <path id="path8069" d="m0 0s23.861 23.194 47.608 20.308-0.426-0.295-1.738-2.231 1.148-1.115 1.738-1.705c0 0-23.187 3.861-47.608-16.372" fill="#fff"/>
          </g>
        </g>
      </g>
    </g>
    <g id="g8071" transform="matrix(1.25 0 0 -1.25 404.63 1151.6)">
      <g id="g8079">
        <g id="g8081" opacity=".2" clip-path="url(#clipPath8075)">
          <g id="g8083" transform="translate(244.25 410.28)">
            <path id="path8085" d="m0 0c-1.148-4.151-3.185-7.212-4.548-6.834-1.362 0.377-1.535 4.048-0.387 8.199 1.148 4.152 3.186 7.212 4.549 6.835 1.363-0.378 1.535-4.049 0.386-8.2" fill="#fff"/>
          </g>
        </g>
      </g>
    </g>
    <g id="g8087" transform="matrix(1.25 0 0 -1.25 404.63 1151.6)">
      <g id="g8095">
        <g id="g8097" opacity=".2" clip-path="url(#clipPath8091)">
          <g id="g8099" transform="translate(237.54 388.6)">
            <path id="path8101" d="m0 0c-1.148-4.151-3.185-7.212-4.548-6.835-1.362 0.377-1.535 4.049-0.386 8.201 1.148 4.151 3.185 7.211 4.547 6.834 1.364-0.377 1.536-4.049 0.387-8.2" fill="#fff"/>
          </g>
        </g>
      </g>
    </g>
    <g id="g8103" transform="matrix(1.25 0 0 -1.25 404.63 1151.6)">
      <g id="g8111">
        <g id="g8113" opacity=".2" clip-path="url(#clipPath8107)">
          <g id="g8115" transform="translate(220.63 369.81)">
            <path id="path8117" d="m0 0s9.096 2.099 12.77 4.723l2.012-0.701s-7.96-7.433-12.858-8.046-1.924 2.468-1.924 4.024" fill="#fff"/>
          </g>
        </g>
      </g>
    </g>
    <g id="g8119" transform="matrix(1.25 0 0 -1.25 782.93 674.42)">
      <path id="path8121" d="m0 0c-4.954 0-9.499 1.057-13.068 2.813 0.922-3.792 6.306-6.706 12.828-6.706 6.377 0 11.67 2.787 12.762 6.458-3.483-1.603-7.811-2.565-12.522-2.565" fill="#e83e2e"/>
    </g>
    <g id="g8123" transform="matrix(1.25 0 0 -1.25 807.06 704.8)">
      <path id="path8125" d="m0 0c-4.664-3.516-11.47-5.746-19.075-5.746-7.184 0-13.66 1.987-18.287 5.168-18.431-5.92-33.385-19.922-40.92-37.968h121.24c-7.811 18.701-23.6 33.024-42.958 38.546" fill="#fbb03b"/>
    </g>
    <g id="g8127" transform="matrix(1.25 0 0 -1.25 744.81 752.97)">
      <path id="path8129" d="m0 0s-4.157-32.236-0.157-45.302 34-11.264 69 0-1.403 29.776-5.701 45.302" fill="#fbb03b"/>
    </g>
    <g id="g8131" transform="matrix(1.25 0 0 -1.25 709.09 752.97)">
      <path id="path8133" d="m0 0s14.228-3.502 23.8-10.51 6.731 16.954 12.949 23.172" fill="#fbb03b"/>
    </g>
    <g id="g8135" transform="matrix(1.25 0 0 -1.25 860.65 752.97)">
      <path id="path8137" d="m0 0s-14.619-6.288-19.356-16.354-14.803 24.278-17.172 26.647" fill="#fbb03b"/>
    </g>
    <g id="g8139" transform="matrix(1.25 0 0 -1.25 404.63 1151.6)">
      <g id="g8147">
        <g id="g8149" opacity=".2" clip-path="url(#clipPath8143)">
          <g id="g8151" transform="translate(292.93 353.06)">
            <path id="path8153" d="m0 0c-0.856 0.242-1.69 0.513-2.496 0.813-25.962-7.584-41.718-34.964-41.718-34.964l13.574-3.986c11.426 20.219 25.003 34.175 30.64 38.137" fill="#fff"/>
          </g>
        </g>
      </g>
    </g>
    <g id="g8155" transform="matrix(1.25 0 0 -1.25 855.73 755.45)">
      <path id="path8157" d="m0 0s21.657-32.543 8.041-36.559c-13.613-4.018-60.148 16.158-62.279 15.995l3.719 14.31s29.764-4.015 42.552-10.157l-5.534 5.264 13.501 11.147z" fill="#f9dec5"/>
    </g>
    <g id="g8159" transform="matrix(1.25 0 0 -1.25 788.66 758.94)">
      <path id="path8161" d="m0 0c6.183-3.926 8.015-12.123 4.088-18.309-3.926-6.184-12.123-8.014-18.307-4.088-6.183 3.926-8.014 12.123-4.087 18.307 3.927 6.186 12.123 8.015 18.306 4.09" fill="#f9dec5"/>
    </g>
    <g id="g8163" transform="matrix(1.25 0 0 -1.25 404.63 1151.6)">
      <g id="g8171">
        <g id="g8173" opacity=".2" clip-path="url(#clipPath8167)">
          <g id="g8175" transform="translate(296.91 293.91)">
            <path id="path8177" d="m0 0s-7.274 11.098 2.013 15.158-18.995 4.014-2.013-15.158" fill="#fff"/>
          </g>
        </g>
      </g>
    </g>
  </g>
  <metadata>
    <rdf:RDF>
      <cc:Work>
        <dc:format>image/svg+xml</dc:format>
        <dc:type rdf:resource="http://purl.org/dc/dcmitype/StillImage"/>
        <cc:license rdf:resource="http://creativecommons.org/licenses/publicdomain/"/>
        <dc:publisher>
          <cc:Agent rdf:about="http://openclipart.org/">
            <dc:title>Openclipart</dc:title>
          </cc:Agent>
        </dc:publisher>
        <dc:title>Cute girl2</dc:title>
        <dc:date>2010-12-03T01:19:26</dc:date>
        <dc:description>Cute girl2</dc:description>
        <dc:source>http://openclipart.org/detail/99199/cute-girl2-by-dcatcherex-99199</dc:source>
        <dc:creator>
          <cc:Agent>
            <dc:title>dcatcherex</dc:title>
          </cc:Agent>
        </dc:creator>
        <dc:subject>
          <rdf:Bag>
            <rdf:li>anime</rdf:li>
            <rdf:li>cartoon</rdf:li>
            <rdf:li>character</rdf:li>
            <rdf:li>clip art</rdf:li>
            <rdf:li>clipart</rdf:li>
            <rdf:li>comic</rdf:li>
            <rdf:li>girl</rdf:li>
            <rdf:li>people</rdf:li>
            <rdf:li>person</rdf:li>
            <rdf:li>student</rdf:li>
            <rdf:li>woman</rdf:li>
          </rdf:Bag>
        </dc:subject>
      </cc:Work>
      <cc:License rdf:about="http://creativecommons.org/licenses/publicdomain/">
        <cc:permits rdf:resource="http://creativecommons.org/ns#Reproduction"/>
        <cc:permits rdf:resource="http://creativecommons.org/ns#Distribution"/>
        <cc:permits rdf:resource="http://creativecommons.org/ns#DerivativeWorks"/>
      </cc:License>
    </rdf:RDF>
  </metadata>
</svg>
