<svg xmlns="http://www.w3.org/2000/svg" xmlns:xlink="http://www.w3.org/1999/xlink" version="1.1" x="0px" y="0px" viewBox="0 0 100 100" style="enable-background:new 0 0 100 100;" xml:space="preserve"><path style="fill:#0064a4" d="M83,19.1H66v-5.5c0-3.9-3.1-7-7-7H41c-3.9,0-7,3.1-7,7v5.5H17c-6.6,0-12,5.4-12,12v26.3c0,2.2,1.8,4,4,4h0.5v20  c0,6.6,5.4,12,12,12h57.1c6.6,0,12-5.4,12-12v-20H91c2.2,0,4-1.8,4-4V31.1C95,24.5,89.6,19.1,83,19.1z M86.6,81.4c0,4.4-3.6,8-8,8  H21.4c-4.4,0-8-3.6-8-8V61.6h26.9v0.6c0,3.9,3.1,7,7,7h5.2c3.9,0,7-3.1,7-7v-0.6h26.9V81.4z M59.6,57.4V57c0-3.9-3.1-7-7-7h-5.2  c-3.9,0-7,3.1-7,7v0.4H9V31.1c0-4.4,3.6-8,8-8h17h32h17c4.4,0,8,3.6,8,8l0,26.3H59.6z M38,13.6c0-1.7,1.3-3,3-3h18c1.7,0,3,1.3,3,3  v5.5H38V13.6z"/></svg>