<svg xmlns="http://www.w3.org/2000/svg" xmlns:xlink="http://www.w3.org/1999/xlink" version="1.1" x="0px" y="0px" viewBox="0 0 100 100" enable-background="new 0 0 100 100" xml:space="preserve"><path style="fill:#0064a4" d="M84.132,15.868C77.187,8.922,67.952,5.097,58.13,5.097S39.073,8.922,32.127,15.868c-13.863,13.862-14.32,36.13-1.374,50.551  l-25.07,25.07c-0.781,0.781-0.781,2.047,0,2.828c0.391,0.391,0.902,0.586,1.414,0.586s1.023-0.195,1.414-0.586l25.07-25.07  c6.756,6.073,15.396,9.397,24.549,9.397c9.822,0,19.057-3.825,26.002-10.771c6.946-6.946,10.771-16.181,10.771-26.003  S91.078,22.813,84.132,15.868z M81.304,65.045c-6.189,6.19-14.42,9.6-23.174,9.6s-16.984-3.409-23.175-9.6  c-12.778-12.779-12.778-33.571,0-46.349c6.19-6.19,14.421-9.6,23.175-9.6s16.983,3.409,23.174,9.6s9.6,14.42,9.6,23.174  S87.494,58.854,81.304,65.045z" stroke="#0064a4" stroke-width="0.5"/></svg>