<svg xmlns="http://www.w3.org/2000/svg" xmlns:xlink="http://www.w3.org/1999/xlink" version="1.1" x="0px" y="0px" viewBox="0 0 96 96" style="enable-background:new 0 0 96 96;" xml:space="preserve"><g><path style="fill:#0064a4;" d="M85.9,26.7c-1.2-1.2-3-1.5-4.6-0.8c-3.1,1.6-7,0.9-9.5-1.6c-2.5-2.5-3.2-6.3-1.6-9.5c0.7-1.6,0.4-3.4-0.8-4.6L65.2,6   c-2.8-2.8-7.1-2.8-9.9,0L5.9,55.4c-2.8,2.8-2.8,7.1,0,9.9l3.3,3.3c1.3,1.3,3.3,1.5,4.8,0.6c3.3-2,7.4-1.5,10.2,1.3   c2.7,2.7,3.3,6.9,1.3,10.2c-1,1.6-0.7,3.5,0.6,4.8l4.7,4.7c2.8,2.8,7.1,2.8,9.9,0L90,40.7c2.8-2.8,2.8-7.1,0-9.9   C90,30.8,85.9,26.7,85.9,26.7z M87.2,37.9L75.6,49.5l-3-3l-2.8,2.8l3,3l-35,35c-1.2,1.2-3,1.2-4.2,0l-4.6-4.6   c2.9-4.9,2.1-11-1.9-15.1s-10.2-4.8-15-1.8l-3.3-3.3c-1.2-1.2-1.2-3,0-4.2l35-35l3,3l2.8-2.8l-3-3L58.1,8.8c1.2-1.2,3-1.2,4.2,0   l4.2,4.2c-2.3,4.7-1.3,10.4,2.4,14.1s9.4,4.7,14.1,2.4l4.1,4.1C88.4,34.8,88.4,36.7,87.2,37.9z"/><rect style="fill:#0064a4;" x="50.9" y="26.8" transform="matrix(0.7071 -0.7071 0.7071 0.7071 -5.4325 46.0738)" width="4" height="5.6"/><rect style="fill:#0064a4;" x="57.7" y="33.6" transform="matrix(0.7071 -0.7071 0.7071 0.7071 -8.2443 52.862)" width="4" height="5.6"/><rect style="fill:#0064a4;" x="64.5" y="40.4" transform="matrix(0.7071 -0.7071 0.7071 0.7071 -11.0561 59.6502)" width="4" height="5.6"/><path style="fill:#0064a4;" d="M54.9,55.3L40.7,41.2c-0.8-0.8-2.1-0.8-2.8,0s-0.8,2.1,0,2.8l14.1,14.1c0.8,0.8,2.1,0.8,2.8,0   C55.7,57.4,55.7,56.1,54.9,55.3z"/><path style="fill:#0064a4;" d="M47.7,62.5L33.6,48.3c-0.8-0.8-2.1-0.8-2.8,0s-0.8,2.1,0,2.8l14.1,14.1c0.8,0.8,2.1,0.8,2.8,0S48.5,63.3,47.7,62.5z"/></g></svg>