<svg xmlns:dc="http://purl.org/dc/elements/1.1/" xmlns:cc="http://creativecommons.org/ns#" xmlns:rdf="http://www.w3.org/1999/02/22-rdf-syntax-ns#" xmlns:svg="http://www.w3.org/2000/svg" xmlns="http://www.w3.org/2000/svg" xmlns:sodipodi="http://sodipodi.sourceforge.net/DTD/sodipodi-0.dtd" xmlns:inkscape="http://www.inkscape.org/namespaces/inkscape" version="1.1" x="0px" y="0px" viewBox="0 0 100 100"><g transform="translate(0,-952.36218)"><path style="font-size:medium;font-style:normal;font-variant:normal;font-weight:normal;font-stretch:normal;text-indent:0;text-align:start;text-decoration:none;line-height:normal;letter-spacing:normal;word-spacing:normal;text-transform:none;direction:ltr;block-progression:tb;writing-mode:lr-tb;text-anchor:start;baseline-shift:baseline;opacity:1;color:#000000;fill:#0064a4;fill-opacity:1;stroke:none;stroke-width:4;marker:none;visibility:visible;display:inline;overflow:visible;enable-background:accumulate;font-family:Sans;-inkscape-font-specification:Sans" d="M 49.6875 11 A 2.0001999 2.0001999 0 0 0 48.78125 11.40625 L 6.78125 43.40625 A 2.0001999 2.0001999 0 1 0 9.21875 46.5625 L 16 41.40625 L 16 87 A 2.0002 2.0002 0 1 0 20 87 L 20 38.34375 L 50 15.5 L 90.78125 46.5625 A 2.0001999 2.0001999 0 1 0 93.21875 43.40625 L 51.21875 11.40625 A 2.0001999 2.0001999 0 0 0 49.6875 11 z M 81.78125 43.96875 A 2.0002 2.0002 0 0 0 80 46 L 80 85 L 62 85 L 62 57 A 2.0001999 2.0001999 0 0 0 60 55 L 40 55 A 2.0001999 2.0001999 0 0 0 39.8125 55 A 2.0001999 2.0001999 0 0 0 38 57 L 38 85 L 26 85 A 2.0002 2.0002 0 1 0 26 89 L 82 89 A 2.0002 2.0002 0 0 0 84 87 L 84 46 A 2.0002 2.0002 0 0 0 81.78125 43.96875 z M 42 59 L 58 59 L 58 85 L 42 85 L 42 59 z " transform="translate(0,952.36218)"/></g></svg>