<?xml version="1.0"?>
<svg xmlns:rdf="http://www.w3.org/1999/02/22-rdf-syntax-ns#" xmlns="http://www.w3.org/2000/svg" xmlns:cc="http://creativecommons.org/ns#" xmlns:xlink="http://www.w3.org/1999/xlink" xmlns:dc="http://purl.org/dc/elements/1.1/" xmlns:svg="http://www.w3.org/2000/svg" id="svg5214" viewBox="0 0 380.08 333.84" version="1.1">
  <defs id="defs5216">
    <linearGradient id="linearGradient3919">
      <stop id="stop3921" stop-color="#4e3921" offset="0"/>
      <stop id="stop3923" stop-color="#d19037" offset="1"/>
    </linearGradient>
    <linearGradient id="linearGradient5908" y2="359.03" gradientUnits="userSpaceOnUse" x2="201.6" gradientTransform="translate(22.109 99.462)" y1="155.84" x1="98.465">
      <stop id="stop4922" stop-color="#1fb8ff" offset="0"/>
      <stop id="stop4924" stop-color="#eefdff" offset="1"/>
    </linearGradient>
    <linearGradient id="linearGradient5910" y2="309.25" xlink:href="#linearGradient3919" gradientUnits="userSpaceOnUse" x2="228.26" gradientTransform="translate(22.109 99.462)" y1="290.74" x1="227.14"/>
    <linearGradient id="linearGradient5912" y2="309.61" xlink:href="#linearGradient3919" gradientUnits="userSpaceOnUse" x2="308.4" gradientTransform="translate(22.109 99.462)" y1="293.34" x1="309.19"/>
  </defs>
  <g id="layer1" transform="translate(-22.109 -99.462)">
    <path id="path4918" d="m22.109 433.3 373.75-1.1332c10.845-107.66 5.6376-215.32 0-322.98-121.94-9.245-243.88-15.215-365.82-2.2665 6.6509 108.79 2.2263 217.58-7.9281 326.38z" fill="url(#linearGradient5908)"/>
    <path id="path4939" d="m45.012 123.54s0.42665-3.8398 1.9199-4.6932c1.4933-0.8533 2.7732-2.5599 3.1999 0.63998 0.42665 3.1999 4.2665 3.1999 4.2665 5.7598s3.1999 5.5465 5.9731 5.5465 6.1864-5.7598 8.9597-4.4798c2.7732 1.28 4.4798 4.2665 5.7598 4.2665s3.8399-3.8399 5.1198-2.1333c1.28 1.7066 3.6265 4.0532 4.4798 6.8264 0.28056 0.91183-1.0666-5.5465-0.63998-7.0397 0.42665-1.4933 3.8399-4.2665 6.3998-3.8399 2.5599 0.42665 6.8264 3.6265 7.0397 1.9199 0.21333-1.7066 3.4132-1.4933 3.6265 0.8533 0.21333 2.3466 1.0666 5.5465 2.3466 5.5465s3.6265-1.0666 4.6932-0.63997c1.0666 0.42665-1.9199-3.1999-2.1332-5.7598-0.21333-2.5599-2.7732-8.3197-0.85331-10.24 1.9199-1.9199 4.4798-2.1332 4.4798-2.1332s-2.3466-4.2665 0.42665-5.3331 9.5996 0.21332 9.5996 0.21332 1.28 1.9199 2.7732 0.63998c1.4933-1.28 5.7598-0.42665 7.6797 0.63998s3.1999 3.8398 3.1999 5.5464 1.4933 4.0532 1.4933 4.0532 5.5465-1.9199 8.1064-2.3466c2.5599-0.42665 5.3331 0.63997 6.3998 2.3466 1.0666 1.7066 0 7.4664 1.4933 9.173s7.893-1.9199 7.893 0.42665 1.28 8.1064-2.3466 8.533c-3.6265 0.42665-6.6131 3.1999-8.9597 3.4132-2.3466 0.21332-3.6265-2.1333-5.3331 0-1.7066 2.1332-1.4933 4.0532-6.1864 4.2665-4.6932 0.21333-13.439 0.21333-13.439 3.8399 0 3.6265 6.1864 2.3466 8.3197 4.9065s5.3331 5.9731 7.6797 4.2665 7.0397-3.8399 6.1864-4.9065 0.8533-8.533 2.7732-8.533 8.1064-2.1332 8.9597 0.8533c0.8533 2.9866 2.1332 6.3998 0 6.8264-2.1333 0.42665-2.1333 2.7732-2.1333 4.4798s3.4132 1.7066 2.9866 3.4132c-0.42665 1.7066 3.6265 4.0532 0.21332 6.3998s-8.533 7.0397-9.813 7.0397-27.946 4.0532-30.292 0.8533c-2.3466-3.1999-7.2531-4.2665-5.9731-7.893s-0.63998-7.6797-4.9065-5.3331 1.9199 4.6932-3.8399 6.3998-29.866 4.2665-31.359 0.8533c-1.4933-3.4132 2.9866-7.0397 1.0666-8.533-1.9199-1.4933-6.6131 0-7.2531-3.8399-0.63998-3.8399 4.0532-5.5465 1.9199-7.2531s-6.1864-3.6265-11.306-6.3998c-5.1198-2.7732-4.4798-4.6932-7.4664-6.1864-2.9866-1.4933-7.2531-0.63997-7.4664-2.7732-0.21332-2.1332-0.63998-7.0397 1.28-8.533 1.9199-1.4933 2.9866-1.9199 2.9866-1.9199z" stroke-opacity="0" fill="#fff"/>
    <path id="path4941" d="m109.22 114.16c0.42665 5.1198 2.9866 8.3197 6.3998 8.3197s8.1064 2.5599 8.1064 1.4933 1.9199-2.9866 4.2665-3.4132c2.3466-0.42665 2.9866-4.6932 4.2665-3.6265 1.28 1.0666 2.7732 2.5599 2.7732 2.5599s5.3331 2.9866 2.3466 3.6265c-2.9866 0.63998-6.8264 3.8399-5.9731 4.9065s2.7732 3.1999 3.1999 5.1198c0.42665 1.9199 2.9866 4.0532 2.9866 6.3998s1.7066 4.9065-1.7066 5.1198c-3.4132 0.21333-9.813 0.42665-11.733-0.42665-1.9199-0.8533-4.0532-5.1198-7.2531-6.3998s-0.8533-4.0532-3.4132-4.0532-4.4798 1.4933-5.5465 1.4933c-1.0666 0-6.8264-2.1333-4.2665-2.5599 2.5599-0.42665 5.1198-0.8533 5.1198-0.8533s-2.5599-2.9866-2.5599-5.3331c0-2.3466-2.1332-4.6932-1.9199-6.3998 0.21333-1.7066-0.63997-4.2665 1.7066-4.4798 2.3466-0.21332 3.1999-1.4933 3.1999-1.4933z" stroke-opacity="0" fill="#d5ffff"/>
    <path id="path4939-3" d="m47.24 121.97s0.42665-3.8398 1.9199-4.6932c1.4933-0.8533 2.7732-2.5599 3.1999 0.63998 0.42665 3.1999 4.2665 3.1999 4.2665 5.7598s3.1999 5.5465 5.9731 5.5465 6.1864-5.7598 8.9597-4.4798c2.7732 1.28 4.4798 4.2665 5.7598 4.2665s3.8399-3.8399 5.1198-2.1333c1.28 1.7066 3.6265 4.0532 4.4798 6.8264 0.28056 0.91183-1.0666-5.5465-0.63998-7.0397 0.42665-1.4933 3.8399-4.2665 6.3998-3.8399 2.5599 0.42665 6.8264 3.6265 7.0397 1.9199 0.21332-1.7066 3.4132-1.4933 3.6265 0.8533 0.21333 2.3466 1.0666 5.5465 2.3466 5.5465s3.6265-1.0666 4.6932-0.63997c1.0666 0.42665-1.9199-3.1999-2.1332-5.7598-0.21333-2.5599-2.7732-8.3197-0.85331-10.24 1.9199-1.9199 4.4798-2.1332 4.4798-2.1332s-2.3466-4.2665 0.42665-5.3331 9.5996 0.21332 9.5996 0.21332 1.28 1.9199 2.7732 0.63998c1.4933-1.28 5.7598-0.42665 7.6797 0.63998s3.1999 3.8398 3.1999 5.5464 1.4933 4.0532 1.4933 4.0532 5.5465-1.9199 8.1064-2.3466c2.5599-0.42665 5.3331 0.63997 6.3998 2.3466 1.0666 1.7066 0 7.4664 1.4933 9.173s7.893-1.9199 7.893 0.42665 1.28 8.1064-2.3466 8.533c-3.6265 0.42665-6.6131 3.1999-8.9597 3.4132-2.3466 0.21332-3.6265-2.1333-5.3331 0-1.7066 2.1332-1.4933 4.0532-6.1864 4.2665-4.6932 0.21333-13.439 0.21333-13.439 3.8399 0 3.6265 6.1864 2.3466 8.3197 4.9065s5.3331 5.9731 7.6797 4.2665 7.0397-3.8399 6.1864-4.9065 0.8533-8.533 2.7732-8.533 8.1064-2.1332 8.9597 0.8533c0.8533 2.9866 2.1332 6.3998 0 6.8264-2.1333 0.42665-2.1333 2.7732-2.1333 4.4798s3.4132 1.7066 2.9866 3.4132c-0.42665 1.7066 3.6265 4.0532 0.21332 6.3998s-8.533 7.0397-9.813 7.0397-27.946 4.0532-30.292 0.8533c-2.3466-3.1999-7.2531-4.2665-5.9731-7.893s-0.63998-7.6797-4.9065-5.3331 1.9199 4.6932-3.8399 6.3998-29.866 4.2665-31.359 0.8533c-1.4933-3.4132 2.9866-7.0397 1.0666-8.533-1.9199-1.4933-6.6131 0-7.2531-3.8399-0.63998-3.8399 4.0532-5.5465 1.9199-7.2531s-6.1864-3.6265-11.306-6.3998c-5.1198-2.7732-4.4798-4.6932-7.4664-6.1864-2.9866-1.4933-7.2531-0.63997-7.4664-2.7732-0.21332-2.1332-0.63998-7.0397 1.28-8.533 1.9199-1.4933 2.9866-1.9199 2.9866-1.9199z" fill="#fff" stroke-opacity="0" fill-opacity=".8301"/>
    <path id="path4943" d="m62.078 140.61c3.1999 0 7.4664 2.3466 8.7463 5.9731 1.28 3.6265-1.9199 7.893 1.4933 8.1064 3.4132 0.21333 6.8264 4.0532 6.8264 5.3331 0 1.28 2.9866 4.6932 4.6932 3.4132s5.7598-2.7732 9.173-1.9199 7.2531-0.21332 8.533-1.4933c1.28-1.28 6.6131-1.9199 6.8264-0.42666 0.21333 1.4933-1.4933 1.28-2.3466 2.5599-0.85331 1.28-1.0666 3.4132-1.0666 3.4132s0.8533 1.7066-1.28 1.9199c-2.1333 0.21333-5.9731 1.7066-5.9731 1.7066s-15.999 2.1332-20.053 1.28c-4.0532-0.8533-6.3998-0.42665-6.6131-2.5599-0.21332-2.1332 2.1333-5.3331 1.7066-6.8264-0.42665-1.4933-7.2531-0.21332-7.6797-4.0532-0.42665-3.8399 2.7732-5.7598 2.7732-7.0397 0-1.28-9.173-3.8398-9.3863-5.5464-0.21333-1.7066 3.6265-3.8399 3.6265-3.8399z" stroke-opacity="0" fill="#d5ffff"/>
    <path id="path4939-3-2" d="m41.947 125.07s0.42665-3.8398 1.9199-4.6932c1.4933-0.8533 2.7732-2.5599 3.1999 0.63998 0.42665 3.1999 4.2665 3.1999 4.2665 5.7598s3.1999 5.5465 5.9731 5.5465 6.1864-5.7598 8.9597-4.4798c2.7732 1.28 4.4798 4.2665 5.7598 4.2665s3.8399-3.8399 5.1198-2.1333c1.28 1.7066 3.6265 4.0532 4.4798 6.8264 0.28056 0.91183-1.0666-5.5465-0.63998-7.0397 0.42665-1.4933 3.8399-4.2665 6.3998-3.8399 2.5599 0.42665 6.8264 3.6265 7.0397 1.9199 0.21332-1.7066 3.4132-1.4933 3.6265 0.8533 0.21333 2.3466 1.0666 5.5465 2.3466 5.5465s3.6265-1.0666 4.6932-0.63997c1.0666 0.42665-1.9199-3.1999-2.1332-5.7598-0.21333-2.5599-2.7732-8.3197-0.85331-10.24 1.9199-1.9199 4.4798-2.1332 4.4798-2.1332s-2.3466-4.2665 0.42665-5.3331 9.5996 0.21332 9.5996 0.21332 1.28 1.9199 2.7732 0.63998c1.4933-1.28 5.7598-0.42665 7.6797 0.63998s3.1999 3.8398 3.1999 5.5464 1.4933 4.0532 1.4933 4.0532 5.5465-1.9199 8.1064-2.3466c2.5599-0.42665 5.3331 0.63997 6.3998 2.3466 1.0666 1.7066 0 7.4664 1.4933 9.173s7.893-1.9199 7.893 0.42665 1.28 8.1064-2.3466 8.533c-3.6265 0.42665-6.6131 3.1999-8.9597 3.4132-2.3466 0.21332-3.6265-2.1333-5.3331 0-1.7066 2.1332-1.4933 4.0532-6.1864 4.2665-4.6932 0.21333-13.439 0.21333-13.439 3.8399 0 3.6265 6.1864 2.3466 8.3197 4.9065s5.3331 5.9731 7.6797 4.2665 7.0397-3.8399 6.1864-4.9065 0.8533-8.533 2.7732-8.533 8.1064-2.1332 8.9597 0.8533c0.8533 2.9866 2.1332 6.3998 0 6.8264-2.1333 0.42665-2.1333 2.7732-2.1333 4.4798s3.4132 1.7066 2.9866 3.4132c-0.42665 1.7066 3.6265 4.0532 0.21332 6.3998s-8.533 7.0397-9.813 7.0397-27.946 4.0532-30.292 0.8533c-2.3466-3.1999-7.2531-4.2665-5.9731-7.893s-0.63998-7.6797-4.9065-5.3331 1.9199 4.6932-3.8399 6.3998-29.866 4.2665-31.359 0.8533c-1.4933-3.4132 2.9866-7.0397 1.0666-8.533-1.9199-1.4933-6.6131 0-7.2531-3.8399-0.63998-3.8399 4.0532-5.5465 1.9199-7.2531s-6.1864-3.6265-11.306-6.3998c-5.1198-2.7732-4.4798-4.6932-7.4664-6.1864-2.9866-1.4933-7.2531-0.63997-7.4664-2.7732-0.21332-2.1332-0.63998-7.0397 1.28-8.533 1.9199-1.4933 2.9866-1.9199 2.9866-1.9199z" fill="#fff" stroke-opacity="0" fill-opacity=".51942"/>
    <path id="path4992" opacity=".44828" d="m390.46 383.81 0.71798 48.344 0.35899 0.47865h4.5472l3.7096-53.489-9.3337 4.6668z" stroke="#8df2ff" stroke-width="1px" fill="#8ae5f1"/>
    <path id="path4994" opacity=".44828" d="m393.45 382.13-0.23932 50.617" stroke="#8df2ff" stroke-width="1px" fill="#8ae5f1"/>
    <path id="path4996" opacity=".44828" d="m391.18 389.79 7.4191-1.436" stroke="#8df2ff" stroke-width="1px" fill="#8ae5f1"/>
    <path id="path4998" opacity=".44828" d="m391.54 395.65c7.1798-1.5556 7.1798-1.6753 7.1798-1.6753" stroke="#8df2ff" stroke-width="1px" fill="#8ae5f1"/>
    <path id="path5000" opacity=".44828" d="m390.94 400.44l7.4191-1.795" stroke="#8df2ff" stroke-width="1px" fill="#8ae5f1"/>
    <path id="path5002" opacity=".44828" d="m390.7 408.94c7.1798-0.83764 7.1798-0.9573 7.1798-0.9573" stroke="#8df2ff" stroke-width="1px" fill="#8ae5f1"/>
    <path id="path5004" opacity=".44828" d="m391.06 417.43 6.5814-1.436" stroke="#8df2ff" stroke-width="1px" fill="#8ae5f1"/>
    <path id="path5006" opacity=".44828" d="m375.74 432.27-1.077-16.513-9.573-0.11966 0.59831-10.53-5.8635-4.9062-7.4191-0.11966v2.6326h-2.3932v-3.9489h-5.2652l-0.71798 5.5045-6.2225 2.1539-0.23933 10.65-6.4618 1.5556 0.11966 13.283z" stroke="#8df2ff" stroke-width="1px" fill="#8ae5f1"/>
    <path id="path5008" opacity=".44828" d="m353.84 390.75 0.71797 3.3506 3.1112 0.47865s-2.9916 0.83764-2.9916 1.9146v3.5899h-1.6753l0.11966-3.9489z" stroke="#8df2ff" stroke-width="1px" fill="#8ae5f1"/>
    <path id="path5010" opacity=".44828" d="m347.14 403.31 0.47865 10.77h14.479v-9.6927z" stroke="#8df2ff" stroke-width="1px" fill="none"/>
    <path id="path5012" opacity=".44828" d="m372.75 418.39 0.11966 13.761" stroke="#8df2ff" stroke-width="1px" fill="none"/>
    <path id="path5014" opacity=".44828" d="m369.88 418.39 0.11966 13.402" stroke="#8df2ff" stroke-width="1px" fill="none"/>
    <path id="path5016" opacity=".44828" d="m366.41 419.82-0.59832 12.206" stroke="#8df2ff" stroke-width="1px" fill="none"/>
    <path id="path5018" opacity=".44828" d="m358.03 416.95 0.23932 14.838" stroke="#8df2ff" stroke-width="1px" fill="none"/>
    <path id="path5020" opacity=".44828" d="m317.11 432.39s-0.43782-14.292 0.13725-14.804c0.88054-0.78379 2.4525-1.8044 4.7689-1.9491 3.8292-0.23933 2.8719-2.5129 5.5045-2.9916 2.6326-0.47865 1.5556-3.1112 4.3079-3.7096 2.7522-0.59831 8.7354 0.11966 9.6927 1.7949 0.95731 1.6753 3.3506 1.436 5.2652 2.0343 1.9146 0.59832 5.1455 1.7949 5.5045 3.2309 0.35899 1.436 1.5556 5.8635 1.5556 5.8635s1.9146-2.1539 4.0685-2.2736c2.1539-0.11966 3.5899 0.47866 4.4275 1.1966 0.83764 0.71798 2.3933 0.11967 3.2309 0.95731 0.83764 0.83764-0.83764 3.4702 0.59831 3.7095 1.436 0.23933 4.7865 1.077 5.2652 0 0.47865-1.077 1.1966-1.436 4.0685-1.9146 2.8719-0.47865 4.3079-1.5556 6.4618-1.1966 2.1539 0.35899 1.6753 1.6753 3.8292 2.6326s3.2309 0.71797 5.2652 0.11966c0.82571-0.24286 3.8631-1.2793 4.7636 0.13424 1.318 2.0689 0.38185 6.9259 0.38185 6.9259" stroke="#3e9425" stroke-width="1px" fill="#48b45e"/>
    <path id="path5025" opacity=".44828" d="m348.58 413.72s-3.8292 0.71798-4.9062 2.1539c-1.077 1.436 0.71797 2.9916-2.2736 2.9916s-3.1112-2.0343-4.9062-0.59832c-1.7949 1.436-2.8719 4.9062 0.59832 6.1028s4.7865-1.077 7.2994 0.23932 2.3933 3.2309 5.0258 2.6326c2.6326-0.59832 3.5899-3.8292 3.5899-5.1455s-1.795-6.5814-2.7522-7.1798c-0.9573-0.59831-2.2736-0.9573-2.2736-0.9573" stroke-opacity="0" fill="#3e9425"/>
    <path id="path5027" opacity=".44828" d="m345.59 431.07s1.6753-3.4702-1.1966-3.1112c-2.8719 0.35899-5.5045 2.1539-8.3764 2.0343-2.8719-0.11966 0.95731 1.7949-2.8719-0.11966s-1.436-2.7522-3.8292-1.9146c-2.3932 0.83764-4.3079 2.7522-6.1028 2.1539-1.795-0.59831-2.8719 2.2736-2.8719 2.2736z" stroke-opacity="0" fill="#3e9425"/>
    <path id="path4716" d="m329.67 267.78s-4.7386 21.662-2.7078 30.463c2.0308 8.8003 8.1233 33.17 5.4156 38.586-2.7078 5.4156-44.852 40.459-52.976 41.813-8.1234 1.3539-27.47-3.6362-27.47-3.6362l-6.88 15.979c0.0263-0.14885 37.111-5.5369 48.74 3.3847 18.25 8.3086 28.828 38.02 29.372 37.909l-196.58 2.7078s-0.0753-28.743 12.306-41.8c12.477-14.465 34.403-11.679 34.403-11.679l18.278-0.67695-4.0617-27.755-4.0617-32.493 4.7386-46.709 8.1234-14.216 36.242-12.564 28.886 38.222 18.814 2.0969 15.57-29.109 5.4156-8.8003 10.831-1.3539 7.4464 8.1233 5.6426-1.6256z" stroke-opacity="0" fill="#ffebcd"/>
    <path id="path4900" d="m185.3 395.4c13.409 18.729 32.221 21.404 32.221 21.404l-38.54-34.93z" stroke-opacity="0" fill="#ffd9a1"/>
    <path id="path4710" d="m128.62 201.44c13.25-34.612 44.066-54.293 93.418-58.217 49.813-13.362 97.441-1.0994 126.06 44.133 14.766 23.339 20.914 63.733 5.2683 114.27-3.0985 29.621-7.1117 58.326-15.57 82.587-4.9481 13.222-9.7481 26.593-17.14 37.371 0.4874-5.045 4.3336-12.924 3.8748-13.446-1.4479-1.649-11.46 18.414-11.327 17.575 0.52943-3.3449 13.695-36.301 12.156-44.57-4.9647 9.3146-9.5793 16.343-14.006 19.217 3.3192-6.5157 7.4632-12.042 8.8417-20.886 3.2077-10.831 3.5614-21.662 1.3539-32.493 4.6212-3.2765 9.0931-6.7023 10.831-12.862l-1.4779-10.134-7.6252 2.2461 7.1477-5.5206-1.4609-10.017-5.8948 2.0999 5.2519-6.5085-0.67935-4.6584 2.7078-28.432-5.3527 3.6998 0.61405-28.07-5.3017 22.155-0.019-21.925c-2.0809 11.807-3.3236 19.724-7.8745 25.198l-0.54221-27.541-8.8678 29.872c1.9109-11.319-0.20522-22.638-2.4011-33.958-0.58293 18.882-1.7833 37.322-8.1587 52.066 4.0288-15.431 1.0952-30.862 1.3913-46.293 0.47022 28.391-3.1322 48.637-13.565 55.222l-1.5115-31.563c-0.11975 9.658 1.4024 19.644-2.6 28.526l-7.135 1.4398c-1.3296-6.1876-2.7311-12.375-8.1668-18.563l1.9704 9.6998c-6.2535-5.3611-12.507-16.857-18.76-25.993l1.7623 12.456c-6.8052-8.134-10.49-21.729-13.999-35.63-0.57494 14.758 0.21503 28.698 3.8279 40.944-5.0879-8.0049-11.991-19.237-15.226-32.603-0.99816-4.1237 0.20498 18.195-1.6609 18.192-1.103-0.002-2.517 4.5789-4.2311 2.2114-3.9199-5.4141-5.6579-17.786-7.6339-20.959-1.5941-2.5598 3.5841 22.639 1.316 24.904-3.62 3.6162-10.969-10.075-12.595-18.122-0.66043-3.2679 6.4313 29.382 4.3042 31.479-2.2039 2.1725-12.486-19.057-13.939-17.922 7.7026 20.083 7.7773 34.472 27.244 54.555-8.1234-3.5985-16.247-8.4708-24.37-20.985 7.7586 14.216 7.0595 28.432 27.755 42.648-10.472-0.19417-23.006-14.825-35.201-27.078 11.301 18.525 17.052 40.221 39.94 52.125-9.5574-1.3687-21.362-9.4777-34.524-21.662 12.668 29.804 33.955 50.352 62.621 79.495l-4.4037 1.7387c-20.498-14.008-49.764-28.31-61.674-46.107-1.5015-2.2437-3.411-3.4723-4.7164-5.7537-1.9602-3.4001 16.126 31.717 16.126 31.717-8.5726-11.042-16.778-19.181-22.553-33.263l-13.154-43.396-7.4464-57.409c-8.1895-3.0649-17.131-6.0813-20.308 11.377 0.36973 13.394 2.549 27.555 25.855 42.713l1.2225 6.7038c-14.292-15.297-31.982-24.478-37.909-54.833 12.216-8.7698 19.826-22.144 23.016-39.94 1.8052-22.565-8.3743-30.748-14.893-43.325z" fill="#f8c785"/>
    <path id="path4712" d="m93.418 187.9c-36.555-0.67695-54.833 25.724-53.479 54.156 0.70838 14.876 11.508 47.386 44.001 48.74 32.493 1.3539 56.407-12.547 58.438-43.686 2.0308-31.14-12.406-58.532-48.961-59.209z" fill="#f00"/>
    <path id="path4714" d="m54.156 277.94c20.883 13.219 33.416 20.148 65.664 5.4156l16.247 35.878c5.8488 29.914 0.60577 55.391-2.0308 81.91-5.9152 11.508-6.8476 23.016-7.4464 34.524-35.855 0.0331-68.808 2.3325-104.93-0.67695l7.4464-71.756c23.849-44.494 26.664-65.89 25.047-85.295z" stroke-opacity="0" fill="#f8c785"/>
    <path id="path4718" d="m203.08 296.21 2.7078 11.508 12.185 8.8003 27.755-7.4464 8.1234-14.216s-17.595-20.445-28.432-19.631c-10.836 0.81345-22.339 20.985-22.339 20.985z" stroke-opacity="0" fill="#fffafa"/>
    <path id="path4720" d="m317.49 275.23c-7.877-1.7915-20.308 20.985-20.308 20.985l2.7078 12.862 12.185 3.3847 8.8003-4.7386 2.7078-14.216s1.7845-16.486-6.0925-18.278z" stroke-opacity="0" fill="#fff"/>
    <path id="path4722" d="m151.64 279.29s-10.154-9.4772-16.924 1.3539c-6.7694 10.831-3.3847 24.37 6.0925 37.232s17.601 14.893 17.601 14.893z" stroke-opacity="0" fill="#ffebcd"/>
    <path id="path4753" d="m268.21 377.71c0.41474 4.0459 0.32123 7.9563-1.7193 11.347l3.4386 0.34386c2.181-3.1593 2.5158-6.8462 2.407-10.66z" stroke-opacity="0" fill="#b8860b"/>
    <path id="path4755" d="m293.66 370.48-5.5018 19.944 2.0632 1.3754 6.5334-25.102z" stroke-opacity="0" fill="#b8860b"/>
    <path id="path4757" d="m298.13 368.42 6.1895-6.1895c0.16422 9.8795 1.2065 18.746-4.8141 35.762l-3.9013-2.5508c2.444-8.6663 2.7196-17.201 2.5259-27.021z" stroke-opacity="0" fill="#b8860b"/>
    <path id="path4759" d="m308.79 359.14c-0.42115 14.186 0.55117 28.798-5.5018 41.263l1.3754 1.3754c6.4488-13.008 5.4993-29.015 6.1895-44.358z" stroke-opacity="0" fill="#b8860b"/>
    <path id="path4788" d="m89.212 304.98s0.45516 12.289 3.1862 13.655c2.731 1.3655 4.5516-5.0068 4.5516-5.0068l-9.1033 49.613z" stroke-opacity="0" fill="#b8860b"/>
    <path id="path4790" d="m105.6 302.25s3.1862 4.5516 5.0068 0c1.8207-4.5516 4.0965-9.1033 4.0965-9.1033 2.6222 27.353-1.8132 47.648-4.5516 69.64z" stroke-opacity="0" fill="#b8860b"/>
    <path id="path4792" d="m120.16 295.88s4.0965 12.745 10.469 16.841c6.3723 4.0965 6.3723 7.7378 6.3723 7.7378s1.3655 34.137 0.91033 43.696c-0.45516 9.5585-5.0068 38.689-5.0068 38.689-0.90017-30.48 0.87478-56.826-12.745-106.96z" stroke-opacity="0" fill="#b8860b"/>
    <path id="path4794" d="m164.73 310.07c8.5855 45.988 44.738 74.654 68.315 105.07-25.521-22.621-43.207-51.117-54.165-84.661z" stroke-opacity="0" fill="#b8860b"/>
    <path id="path4796" d="m176.6 295.88l10.014 9.5584c10.803 29.544 23.104 38.308 35.048 46.427-8.2975-4.1223-18.843-0.97641-45.061-55.985z" stroke-opacity="0" fill="#b8860b"/>
    <path id="path4798" d="m267.64 297.24c1.6857-60.264-13.655-95.129-13.655-95.129s-7.2465-14.493-9.1033-3.6413c-6.3214 36.943 14.121 82.152 15.02 85.116 3.9329 2.5212 6.2252 7.5033 7.7378 13.655z" fill="#dda10e"/>
    <path id="path4800" d="m209.83 277.22c-7.235-29.731-5.9709-65.361 0.45516-92.854l-11.379 39.144c0.54712 23.318 5.1607 40.544 10.924 53.709z" stroke-opacity="0" fill="#b8860b"/>
    <path id="path4802" d="m200.73 284.5c-7.416-17.853-7.3965-40.168-9.1033-61.447l-5.9171 18.207c9.9815 38.458 12.048 38.658 15.02 43.241z" stroke-opacity="0" fill="#b8860b"/>
    <path id="path4804" d="m317.7 261.29l-0.45517-38.689 3.1862 25.489z" stroke-opacity="0" fill="#b8860b"/>
    <path id="path4806" d="m325.9 277.67c4.8911-16.07 1.6284-34.859-0.45517-53.254l-1.8206 24.579c3.5291 9.5584 2.0778 19.117 2.2758 28.675z" stroke-opacity="0" fill="#b8860b"/>
    <path id="path4808" d="m331.81 397.84c10.329-24.328 9.7122-50.647 6.8275-77.378l-7.2826 4.0965s0.91033 5.9171 0.91033 8.6481-0.45517 5.462-0.45517 5.462c4.2026 36.61-3.5933 59.183-12.289 84.205 4.6842-8.0508 9.9103-15.831 12.289-25.034z" stroke-opacity="0" fill="#b8860b"/>
    <path id="path4810" d="m322.68 346.83 5.6776-5.4883c0.58774 51.113-9.3105 47.069-17.033 59.804 9.7414-15.872 13.725-33.902 11.355-54.315z" stroke-opacity="0" fill="#b8860b"/>
    <path id="path4812" d="m158.97 298.19s-1.7033 7.7594-3.4065 8.8949c-1.7033 1.1355-2.6495-3.4065-2.6495-3.4065 2.6855 23.829 6.1539 36.306 9.8411 45.61-3.2017-16.709-3.5494-33.894-3.7851-51.098z" stroke-opacity="0" fill="#b8860b"/>
    <path id="path4814" d="m325.99 304.57 3.747-31.582z" stroke="#000" stroke-width="1px" fill="none"/>
    <path id="path4816" d="m179.86 360.24 13.917 12.847 21.947 28.906s-15.523-10.706-21.411-19.27c-5.8882-8.5646-14.453-22.482-14.453-22.482z" stroke-opacity="0" fill="#b8860b"/>
    <path id="path4818" d="m229.1 205 3.747 11.241s1.0706 33.188 3.747 36.4c2.6764 3.2117 6.4234 13.382 6.4234 13.382l5.3529 18.735s-11.776-16.594-12.847-22.482c-1.0706-5.8882-6.4234-32.653-6.4234-32.653z" stroke-opacity="0" fill="#dda10e"/>
    <path id="path4820" d="m332.95 268.17s-7.494 11.776-5.3529 26.229c2.1412 14.453 2.1412 11.241 2.1412 11.241s3.747-8.5646 4.2823-13.917c0.53529-5.3529-1.0706-23.553-1.0706-23.553z" stroke-opacity="0" fill="#b8860b"/>
    <path id="path4822" d="m126.9 207.68c-12.312-2.1411 8.5646 42.823-6.4234 56.205s-39.611 10.17-43.358 16.059c-3.747 5.8882 33.775 15.492 52.993-2.6764 20.531-19.409 9.8224-59.77 8.0293-60.487z" fill="#b50000"/>
    <path id="path4824" d="m268.74 209.81c16.605 67.375 9.5317 82.412 6.8131 93.491l-1.1355-8.7056c-0.29711 3.5038-0.0556 7.6539-2.2744 8.8517l-1.1322-8.8517c5.1342-21.937 0.0911-45.725-5.6776-69.645z" stroke-opacity="0" fill="#dda10e"/>
    <path id="path4826" d="m329.39 310.21 1.7279 9.9357c6.6211-4.7126 8.4242-12.867 11.232-20.303z" stroke-opacity="0" fill="#c8992d"/>
    <path id="path4828" d="m215.78 200.92 3.0239 12.312c-1.382 12.096-0.66571 24.191 0.216 36.287-2.9525-10.412-6.4174-19.239-3.2399-48.598z" stroke-opacity="0" fill="#dda10e"/>
    <path id="path4830" d="m264.81 143.9c45.476 7.6274 66.31 29.593 80.349 55.51-22.243-35.795-58.978-43.864-93.957-55.294z" fill="#fce3c2"/>
    <path id="path4832" d="m255.52 157.5s-3.2442-1.3756-0.21599-2.3759c11.364-3.7539 47.585 48.233 52.702 76.03-9.897-14.264-28.202-53.496-52.486-73.654z" fill="#fce3c2"/>
    <path id="path4834" d="m227.01 160.31 1.296 3.2399s-24.569 50.889-20.303 88.341c0.34225 3.0048-15.654-57.779 19.007-91.581z" fill="#dda10e"/>
    <path id="path4830-4" d="m353.97 199.44c16.52 43.051 8.1754 72.151-7.0238 97.407 19.543-37.337 7.8424-73.082-0.0717-109.02z" fill="#fce3c2"/>
    <path id="path4830-4-4" d="m344.67 219.53c15.885 22.372 14.587 43.131 8.552 63.444 7.1161-29.185-4.8295-48.344-14.465-68.717z" fill="#fce3c2"/>
    <path id="path4832-9" d="m325.73 208.73s-2.2206-1.8344 0.89117-1.7646c11.678 0.26214 19.811 47.079 11.658 68.398-2.1955-12.835-0.41104-45.813-12.549-66.634z" fill="#fce3c2"/>
    <path id="path4890" d="m251.7 374.85s-9.7747-2.4437-19.549-4.8874c-9.7747-2.4437-10.997 1.2218-6.1092 9.7747 4.8874 8.5529 4.8874 21.382 9.1638 21.382s9.1638-5.4983 9.1638-5.4983z" fill="#ffd9a1"/>
    <path id="path4892" d="m146.01 277.1 6.7201 2.4437s1.2218-56.205 9.1638-73.31c7.942-17.106 23.215-42.764 35.433-48.874 12.218-6.1092 25.048-13.44 25.048-13.44s-45.819 13.44-63.536 54.372c-14.916 34.461-12.829 78.809-12.829 78.809z" stroke-opacity="0" fill="#b8860b"/>
    <path id="path4894" d="m81.252 194.02c-21.971 3.5009-34.436 15.643-38.488 35.433-2.9835 9.4645 0.96871 8.5253 4.2764 8.5529 2.1497-20.551 14.146-34.836 34.212-43.986z" fill="#fee"/>
    <path id="path4896" d="m243.24 419.33c0.9932-7.133-0.27088-5.8689 0.90291-7.0427s10.203-4.4243 10.203-4.4243-6.501 3.0699-7.2233 4.8757c-0.72233 1.8058-3.8825 6.5912-3.8825 6.5912z" stroke-opacity="0" fill="#ffd9a1"/>
    <path id="path4898" d="m286.31 431.25 2.2573-9.5708-0.27088 9.4806z" stroke-opacity="0" fill="#ffd9a1"/>
    <path id="path4913" d="m168.81 381.31c1.6043 11.422 13.81 22.405 21.65 32.201-6.9161-10.147-13.029-22.163-18.024-32.311z" stroke-opacity="0" fill="#ffd9a1"/>
    <path id="path4915" d="m352.17 299.59s-3.1585 10.002-5.2641 12.107c-2.1056 2.1056-3.1585 4.2113-3.1585 4.2113 3.155 14.038 0.73113 28.075 0 42.113 4.1753-18.11 8.3571-36.212 8.4226-58.432z" stroke-opacity="0" fill="#fce3c2"/>
    <path id="path5029" d="m145.1 277.13s-0.59223 19.544 0.59224 30.204 1.1845 19.544 1.1845 19.544l10.068 4.7379c-2.2244-17.026-5.7875-33.605-3.5534-52.117z" stroke-opacity="0" fill="#ffd9a1"/>
    <path id="path3730" d="m332.82 273.42s-4.3792 12.59-4.9266 25.728c-0.54739 13.138 7.6636 28.465 2.737 38.318-4.9266 9.8531-44.339 40.507-51.455 41.055-7.1162 0.54739-27.006-3.2143-27.006-3.2143s-12.674 30.447-12.126 33.731c0.5474 3.2844 1.3618 9.4431 1.3618 9.4431" stroke="#d2b48c" stroke-width="1px" fill="none"/>
    <path id="path3732" d="m172.11 381.36s-18.242-2.3794-29.347 7.9315c-11.104 10.311-15.466 26.571-15.466 32.916v10.708" stroke="#d2b48c" stroke-width="1px" fill="none"/>
    <path id="path3734" d="m151.89 279.44s-9.5178-7.9315-15.466-0.39658c-5.9486 7.5349-5.1555 23.001-3.5692 27.364 1.5863 4.3623 11.104 19.829 17.846 23.001 6.7418 3.1726 7.5349 3.1726 7.5349 3.1726" stroke="#d2b48c" stroke-width="1px" fill="none"/>
    <path id="path3736" d="m207.41 307.2c9.5043 13.604 23.978 5.7918 35.295 2.3794l3.5692 0.39658c-13.905 3.4685-24.629 17.283-43.623-0.79315z"/>
    <path id="path3738" d="m302.19 309.18c7.1507 3.7026 13.455 4.302 17.449-3.5692l7.5349 1.1897c-8.1612 5.8019-16.126 12.52-27.364 3.9658z"/>
    <path id="path3740" d="m215.34 267.54c18.542-4.3395 32.271 3.6494 41.244 12.294" stroke="#d2b48c" stroke-width="1px" fill="none"/>
    <path id="path3742" d="m299.02 281.42c10.286-15.523 13.691-10.404 20.225-14.673-6.1801 2.3636-12.019 3.1934-20.225 14.673z" stroke="#d2b48c" stroke-width="1px" fill="none"/>
    <path id="path3744" d="m216.13 279.83s-1.5863 6.7418-1.5863 14.277c0 7.5349 6.3452 20.622 6.3452 20.622s3.5692 0.39657 7.9315-0.39658 12.69-5.552 12.69-5.552 3.1726-7.1384 3.1726-13.087-0.56084-10.143-0.56084-10.143-8.4642-8.4442-16.961-8.7728c-5.6042-0.2167-11.032 3.0523-11.032 3.0523z" stroke="#483611" stroke-width="1px" fill="url(#linearGradient5910)"/>
    <path id="path3746" d="m253.81 296.49c-8.805-9.1256-29.444-40.677-49.968 1.9829l-12.294-4.7589c8.8449-4.8212 13.211-15.575 19.033-19.04 22.084-13.14 34.614 8.5429 42.833 12.298z"/>
    <path id="path3748" d="m227 314.15s-2.3836-1.6825-1.8227-3.9259c0.56084-2.2434 1.1165-3.6047 5.7486-1.6825 9.4832-1.9121 5.3767-9.8569 8.4126-11.497 3.4759-1.8781 4.4867 4.0661 4.3465 5.7486-0.14021 1.6825-2.9444 6.5899-2.9444 6.5899-4.3498 2.0499-8.6645 4.1698-13.741 4.7672z" stroke-opacity="0" fill="#f4be78"/>
    <path id="path3750" d="m232.75 287.65l-0.98147 1.1217c-0.98147 1.1217-1.8227 2.3836-0.98147 3.365 0.84126 0.98147 3.365 0.98147 4.0661 0 0.70105-0.98148-2.1032-4.4867-2.1032-4.4867z" fill="#fff"/>
    <path id="path3752" d="m235.83 279.66s0.42063 4.9074 1.8227 7.4312 2.1032 5.7486 4.4867 5.4682c2.3836-0.28042 2.2434-2.8042 2.2434-2.8042v-4.0661z" fill="#fff"/>
    <path id="path3762" d="m301.45 293.12c-0.63798 3.6863-1.2717 9.9771 0 15.844 0 0 5.328 2.664 7.0105 3.0846 1.6825 0.42064 7.1507-6.7301 8.1322-17.526 0.98147-10.796-0.98147-18.788-0.98147-18.788s-6.8703 3.6455-9.6745 7.8518-4.4867 9.5343-4.4867 9.5343z" stroke="#483611" stroke-width="1px" fill="url(#linearGradient5912)"/>
    <path id="path3754" d="m312.25 278.26s1.5423 0.42063 2.2434 1.6825c0.70105 1.2619 2.5238 4.4867 2.2434 8.4126-0.28042 3.9259-0.98147 4.3465-2.1032 4.3465s-7.0105-8.2724-7.0105-8.2724 0.70105-3.365 1.8227-4.4867c1.1217-1.1217 2.8042-1.6825 2.8042-1.6825z" stroke-opacity="0" fill="#fff"/>
    <path id="path3756" d="m309.44 289.06c-2.664 0.42063-2.5238 3.9259-0.42063 3.6455 2.1032-0.28042 2.3836-0.56084 2.3836-1.5423 0-0.98147-1.963-2.1032-1.963-2.1032z" stroke-opacity="0" fill="#fffafa"/>
    <path id="path3758" d="m312.81 305.32c-0.28042-6.029-1.7022 0.80903-3.5053 0.70105-1.8331-0.10978-2.8042-3.2248-3.2248 0.98147-0.42063 4.2063 1.2619 4.2063 2.9444 3.9259 1.6825-0.28042 3.7857-5.6084 3.7857-5.6084z" stroke-opacity="0" fill="#f4be78"/>
    <path id="path3760" stroke="#000" stroke-width="1px" d="m297.25 298.87c15.945-28.896 24.991-31.842 25.238-1.6825l10.656-5.1878s-3.2248-0.14021-4.2063-2.3836c-0.98148-2.2434-2.2355-20.596-11.357-20.331-6.593 0.19215-17.667 16.685-17.667 16.685 0.90351 1.2286-1.0505 7.3558-2.664 12.899z"/>
    <path id="path3764" d="m291.78 316.68 3.365 3.7857v2.1032" stroke="#d2b48c" stroke-width="1px" fill="none"/>
    <path id="path3766" d="m288.69 347.8 0.28042-1.8227s-3.6455-0.42063-5.6084 0.84126c-1.963 1.2619-2.1032 2.3836-2.1032 2.3836l3.5053 0.14021" stroke="#d2b48c" stroke-width="1px" fill="none"/>
    <path id="path3768" d="m262.05 404.73c0.45674 0.45674-11.764 4.2195-15.844 6.1693-3.8474 1.8389-2.9444 9.9549-2.9444 9.9549s2.664-7.1507 4.4867-8.8332 5.1878-2.664 7.992-3.7857 6.3095-3.5053 6.3095-3.5053z" stroke="#d2b48c" stroke-width="1px" fill="none"/>
    <path id="path3770" d="m246.77 390.15s10.376 3.0846 14.582 12.058c4.2063 8.9735 7.5714 11.077 7.291 18.788-0.28043 7.7116-0.28043 10.796-0.28043 10.796l16.405-0.28043 0.14021-15.003c-3.9614-8.3047-7.4161-19.535-23.555-26.079l-14.021-0.14021z" stroke="#b73131" stroke-width="1px" fill="#f96e6e"/>
    <path id="path3772" d="m261.91 390.15s18.508-3.2248 29.725 2.664 19.209 14.862 21.172 18.368c1.963 3.5053 9.8147 19.77 9.8147 19.77" stroke="#d2b48c" stroke-width="1px" fill="none"/>
    <path id="path3774" d="m289.25 417.91s-3.365 13.18-2.5238 13.32c0.84126 0.14021 1.5423 0 1.5423 0z" stroke="#d2b48c" stroke-width="1px" fill="none"/>
    <path id="path3776" d="m179.89 264.52c-0.74577-0.93222 43.504-17.709 49.775-19.629 4.1492-1.2708 15.177-3.0409 21.873-4.9074 4.6099-1.2851 4.6269-3.5053 4.6269-3.5053h3.0846s-1.7203 6.4374-11.778 7.0105c-10.148 0.57823-68.103 18.424-67.581 21.032z" stroke="#936e22" stroke-width="1px" fill="none"/>
    <path id="path3778" d="m328.37 255.83c-9.3333-6.1225-20.475-13.647-28.323-18.368 10.38 3.4081 17.433 8.5982 28.323 18.368z" stroke="#936e22" stroke-width="1px" fill="none"/>
    <path id="path3782" d="m138.8 296.49s1.9829 7.5349 5.552 11.501c3.5692 3.9658 9.9144 6.3452 9.9144 6.3452" stroke="#d2b48c" stroke-width="1px" fill="none"/>
    <path id="path3784" d="m139.99 287.77s5.552-1.9829 8.3281 1.1897c2.776 3.1726 3.9658 6.7418 3.9658 6.7418" stroke="#d2b48c" stroke-width="1px" fill="none"/>
    <path id="path3805" d="m232.75 141.56s-47.672 9.5343-67.301 54.962-13.46 127.31-4.4867 148.06c8.9735 20.751 8.9735 35.894 17.386 47.672 8.4126 11.778 19.069 24.116 19.069 24.116s-15.704-26.36-18.508-34.211c-2.8042-7.8518 10.656 15.143 17.386 19.069 6.7301 3.9259 29.725 18.788 35.894 23.275 6.1693 4.4867 12.899 7.5714 12.899 7.5714l5.0476-0.56084s-20.399-21.933-37.016-37.857c-6.7301-6.4497-20.549-28.007-24.397-42.344-0.61111-2.2768 7.6379 6.6159 12.339 11.497 7.2909 7.5714 23.836 13.741 23.836 13.741s-22.995-14.021-32.529-34.211c-9.5343-20.19-9.5343-22.994-9.5343-22.994s13.46 20.751 24.677 26.36c11.217 5.6084 15.143 5.6084 15.143 5.6084s-12.058-1.4021-24.116-22.995c-16.022-28.69-11.217-23.555-11.217-23.555s10.656 13.46 17.386 17.947c6.7301 4.4867 10.656 5.0476 10.656 5.0476s-17.386-16.264-21.873-31.407c-4.4867-15.143-10.095-31.968-10.095-31.968s5.6518 13.485 8.693 17.667c4.4867 6.1693 11.497 10.936 11.497 10.936s-4.4867-12.339-6.1692-19.069c-1.6825-6.7301-3.9259-25.799-3.9259-25.799s3.9259 19.069 7.2909 23.555c3.365 4.4867 9.5343 8.4126 9.5343 8.4126l-5.0476-35.333 8.4126 28.603 6.1693-3.365-1.1217-21.873s5.6084 14.582 7.2909 20.19c1.6825 5.6084 11.778 20.751 11.778 20.751s-5.6084-14.021-6.1693-24.677c-0.56084-10.656 0-26.36 0-26.36s3.0846 20.19 6.1692 27.481c2.4432 5.7748 9.5343 19.069 9.5343 19.069s-1.1217-6.1693-2.2434-11.217c-1.1217-5.0476-2.8042-10.656-2.8042-10.656s11.217 21.873 14.582 25.238 9.5343 7.8518 9.5343 7.8518-6.7301-7.2909-6.7301-11.217c0-3.9259 7.2909 7.2909 7.2909 7.2909 0.68424 4.6737 2.7802 9.3474 0 14.021 2.3142-0.83838 3.6652-5.5296 4.4867-12.339 0.40478 3.9568 1.0303 8.1343 0 10.656 3.3578-2.4721 3.0994-7.1138 2.8042-11.778 0.31757 4.4304 1.5485 7.8112 0 12.339 5.5835-7.4501 3.7765-20.901 5.6084-31.407 0.35142 12.764 0.39582 23.687 0 31.968 14.711-17.697 12.834-35.925 14.021-56.365 2.0552 17.928 1.4342 34.642-2.8042 49.634 10.046-19.069 7.6711-38.137 9.5343-57.206 1.1191 12.899 5.5571 25.799 0.56084 38.698 6.5724-10.833 7.0796-23.688 9.5343-35.894 0.50019 10.464 0.80449 21.516 0.56085 34.211 6.2621-8.946 8.093-19.681 8.4126-30.846 0.52005 8.9735 1.9043 17.947-1.1217 26.92 3.6938-2.9847 5.2292-14.603 6.7301-26.36 0.39715 11.371 1.9803 22.979-1.1217 33.65 4.2934-7.0679 6.168-14.62 6.7301-22.434l-2.2434 26.36 5.6084-24.677c-3.0337 17.566 6.6034 37.244-12.339 52.158 9.6077-1.2807 14.666-8.93 20.751-15.143-4.5217 15.375-10.214 29.767-33.09 29.725 16.026-0.0381 31.785-2.6736 44.867-31.407l5.6084-31.968s6.1692-55.523-10.656-77.957-55.523-47.672-80.761-48.793c-25.238-1.1217-29.164 4.4867-29.164 4.4867" stroke="#d3a340" stroke-width="1px" fill="none"/>
    <path id="path3807" d="m353.33 300.27c-8.4804 97.729-35.753 125.79-35.894 125.91 3.2876-6.647 6.684-12.098 9.2539-26.64-3.5012 12.67-9.8931 22.449-17.106 31.407 9.7605-15.857 12.457-33.481 16.545-50.756-5.5781 7.6555-7.4487 17.429-17.667 22.434 15.218-16.123 14.636-37.031 13.741-56.084 0 0 8.5288-5.5277 10.095-11.778 1.5663-6.25-2.8042-21.592-2.8042-21.592l-1.963-15.423 1.6825-10.376 3.9259-17.947z" stroke="#c8992d" stroke-width="1px" fill="none"/>
    <path id="path4705" d="m334.11 270.93c13.882 20.822 18.429 28.002 18.429 28.002" stroke="#f8c785" stroke-width="1px" fill="#fff"/>
    <path id="path3809" d="m310.43 358.04c0.71015 16.757-0.0901 32.193-5.328 43.746l-1.6825-1.4021c6.3519-12.028 5.4632-26.47 5.328-40.661z" stroke="#c8992d" stroke-width="1px" fill="none"/>
    <path id="path3811" d="m268.36 378.23c-0.0758 2.9647 0.10427 5.5455-1.4021 10.656l3.6455-0.28042c2.2477-2.2093 1.8416-6.1878 1.963-9.8147z" stroke="#c8992d" stroke-width="1px" fill="none"/>
    <path id="path3813" d="m293.6 370.38-5.0476 20.19 2.2434 0.84126 5.6084-22.714z" stroke="#c8992d" stroke-width="1px" fill="none"/>
    <path id="path3815" d="m305.38 361.97c-0.61453 12.832-1.1803 25.697-6.1693 35.613l-3.365-1.963c1.4301-8.2912 2.028-17.414 1.963-27.201z" stroke="#c8992d" stroke-width="1px" fill="none"/>
    <path id="path3817" d="m343.52 315.98c2.887 14.642 2.4137 28.725 0.84126 42.624" stroke="#c8992d" stroke-width="1px" fill="none"/>
    <path id="path3819" d="m337.91 320.18c5.781 28.554 2.2243 54.159-6.1693 78.237" stroke="#c8992d" stroke-width="1px" fill="none"/>
    <path id="path3821" d="m331.74 337.57c5.7807 36.108-1.8652 62.886-16.545 83.846" stroke="#c8992d" stroke-width="1px" fill="none"/>
    <path id="path3823" d="m327.25 355.24c1.0182 12.325-0.17694 21.699-3.6455 28.042" stroke="#c8992d" stroke-width="1px" fill="none"/>
    <path id="path3825" d="m244.81 158.1c25.706 39.763 33.333 80.074 34.492 120.58" stroke="#c8992d" stroke-width="1px" fill="none"/>
    <path id="path3827" d="m240.88 192.31c3.34 35.923 4.1353 65.348 18.508 92.258" stroke="#c8992d" stroke-width="1px" fill="none"/>
    <path id="path3829" d="m256.87 203.81c12.52 30.192 18.772 60.384 14.862 90.576" stroke="#c8992d" stroke-width="1px" fill="none"/>
    <path id="path3831" d="m234.99 163.71c-4.8211 27.008-8.4168 53.827-3.6455 79.359" stroke="#c8992d" stroke-width="1px" fill="none"/>
    <path id="path3833" d="m221.25 152.49c-17.77 24.545-33.527 50.977-27.762 97.586" stroke="#c8992d" stroke-width="1px" fill="none"/>
    <path id="path3835" d="m227.14 159.5c-23.704 27.434-27.229 56.42-21.873 86.089" stroke="#c8992d" stroke-width="1px" fill="none"/>
    <path id="path3837" d="m229.1 163.15c-11.191 21.332-19.257 45.908-11.217 87.211" stroke="#c8992d" stroke-width="1px" fill="none"/>
    <path id="path3839" d="m231.91 215.31c3.0116 16.122 0.73565 32.773 10.376 48.232" stroke="#c8992d" stroke-width="1px" fill="none"/>
    <path id="path3841" d="m218.73 212.5c-0.0302 14.582-2.4135 29.164 3.0846 43.746" stroke="#c8992d" stroke-width="1px" fill="none"/>
    <path id="path3843" d="m199.66 222.6c0.61225 30.338 5.672 43.627 10.656 57.206" stroke="#c8992d" stroke-width="1px" fill="none"/>
    <path id="path3845" d="m186.2 239.7c3.8028 18.58 7.9412 36.555 15.423 48.513" stroke="#c8992d" stroke-width="1px" fill="none"/>
    <path id="path3847" d="m170.5 210.54c-7.9166 41.844-6.6162 81.458 14.021 114.97" stroke="#c8992d" stroke-width="1px" fill="none"/>
    <path id="path3849" d="m158.72 297.47c1.0478 17.76-0.0824 35.52 5.0476 53.28" stroke="#c8992d" stroke-width="1px" fill="none"/>
    <path id="path3851" d="m164.33 309.25c9.6745 27.534 5.2579 36.849 49.915 90.295" stroke="#c8992d" stroke-width="1px" fill="none"/>
    <path id="path3853" d="m168.25 338.41c3.4666 14.753 6.365 30.642 11.217 42.624" stroke="#c8992d" stroke-width="1px" fill="none"/>
    <path id="path3855" d="m178.91 357.48c9.1568 16.235 16.769 31.93 54.962 58.328" stroke="#c8992d" stroke-width="1px" fill="none"/>
    <path id="path3857" d="m210.88 409.64c7.6674 6.5432 15.132 16.451 14.021 22.995h10.095v-7.2909z" stroke="#b73131" stroke-width="1px" fill="#f96e6e"/>
    <path id="path3859" d="m283.23 192.03c6.4345 16.429 15.035 27.082 17.386 54.402" stroke="#c8992d" stroke-width="1px" fill="none"/>
    <path id="path3861" d="m261.35 155.58c30.185 25.872 44.558 56.395 49.354 89.735" stroke="#c8992d" stroke-width="1px" fill="none"/>
    <path id="path3863" d="m262.47 147.16c55.553 15.324 72.606 92.076 63.936 130.12" stroke="#c8992d" stroke-width="1px" fill="none"/>
    <path id="path3865" d="m331.46 196.52c14.574 38.34 15.89 72.704 0.56085 102.07" stroke="#c8992d" stroke-width="1px" fill="none"/>
    <path id="path3867" d="m245.09 142.68c53.914-3.6157 95.699 33.79 108.31 76.815 11.506 39.252 0.86862 86.08-19.137 103.21" stroke="#c8992d" stroke-width="1px" fill="none"/>
    <path id="path3869" d="m219.29 143.8c-29.114-0.56667-83.788 19.806-89.735 58.328" stroke="#c8992d" stroke-width="1px" fill="none"/>
    <path id="path3871" d="m121.14 283.45c5.7975 36.883 38.137 54.962 38.137 54.962" stroke="#c8992d" stroke-width="1px" fill="none"/>
    <path id="path3873" d="m93.661 188.11c35.333 0.56084 51.037 31.407 48.793 57.206-2.2434 25.799-19.069 44.306-46.55 45.428-27.481 1.1217-54.797-10.098-55.523-55.523-0.39471-24.68 17.947-47.672 53.28-47.111z" stroke="#800000" stroke-width="1px" fill="none"/>
    <path id="path3875" d="m130.12 203.81c12.718-16.714 27.917-31.656 51.037-40.941" stroke="#c8992d" stroke-width="1px" fill="none"/>
    <path id="path3877" d="m134.6 208.3c19.266-23.621 27.391-26.329 27.481-26.36" stroke="#c8992d" stroke-width="1px" fill="none"/>
    <path id="path3879" d="m142.45 226.24c6.5432-2.6647 13.086-11.835 19.629-21.873" stroke="#c8992d" stroke-width="1px" fill="none"/>
    <path id="path3881" d="m141.89 235.22c5.0476 2.1915 10.095-1.3933 15.143-5.0476" stroke="#c8992d" stroke-width="1px" fill="none"/>
    <path id="path3883" d="m136.85 317.66c0.82296 26.085 3.263 50.283-4.4867 86.37" stroke="#c8992d" stroke-width="1px" fill="none"/>
    <path id="path3885" d="m53.841 275.04c2.003 30.522-6.6811 59.399-24.116 86.93" stroke="#c8992d" stroke-width="1px" fill="none"/>
    <path id="path3887" d="m54.402 312.05c-7.0348 21.438-7.9281 37.503-25.799 68.423" stroke="#c8992d" stroke-width="1px" fill="none"/>
    <path id="path3889" d="m89.735 304.76c-3.536 35.4 12.825 55.25-34.773 125.07" stroke="#c8992d" stroke-width="1px" fill="none"/>
    <path id="path3891" d="m94.221 304.2-5.6084 50.476" stroke="#c8992d" stroke-width="1px" fill="none"/>
    <path id="path3893" d="m97.586 307c-0.8933 18.736-5.9107 33.348-9.5343 49.354" stroke="#c8992d" stroke-width="1px" fill="none"/>
    <path id="path3895" d="m106 300.83c2.1717 40.573 12.981 75.964-5.6084 128.99" stroke="#c8992d" stroke-width="1px" fill="none"/>
    <path id="path3897" d="m111.05 298.03c3.0488 23.014 1.9111 44.632 0.56084 66.179" stroke="#c8992d" stroke-width="1px" fill="none"/>
    <path id="path3899" d="m114.41 293.54c3.3259 29.676-1.1474 49.602-3.365 72.349" stroke="#c8992d" stroke-width="1px" fill="none"/>
    <path id="path3901" d="m118.34 295.23c10.075 36.533 17.301 72.433 14.021 106" stroke="#c8992d" stroke-width="1px" fill="none"/>
    <path id="path3903" d="m121.7 295.23c5.3952 25.999 15.903 28.627 11.778 98.147" stroke="#c8992d" stroke-width="1px" fill="none"/>
    <path id="path3905" d="m318 414.69c7.2322-18.667 14.632-37.2 14.582-61.693" stroke="#c8992d" stroke-width="1px" fill="none"/>
    <path id="path3907" d="m173.86 271.11c4.7286 12.061 4.8619 22.285 16.264 37.016" stroke="#c8992d" stroke-width="1px" fill="none"/>
    <path id="path3909" d="m177.79 296.91c10.095 21.312 20.751 42.662 33.09 49.915" stroke="#c8992d" stroke-width="1px" fill="none"/>
    <path id="path3911" d="m218.17 147.72c-28.834 30.228-46.684 66.151-35.333 117.22" stroke="#c8992d" stroke-width="1px" fill="none"/>
    <path id="path3913" d="m174.98 309.25c2.9351 22.527 10.052 38.085 17.386 53.28" stroke="#c8992d" stroke-width="1px" fill="none"/>
    <path id="path3915" d="m173.86 180.81s-19.534 10.482-21.312 19.069c-2.0855 10.073-6.7301 20.19-9.5343 20.751-2.8042 0.56085-2.2434 2.2434-2.2434 2.2434" stroke="#c8992d" stroke-width="1px" fill="none"/>
    <path id="path3917" d="m317.44 224.56c0.85804 13.494 0.63009 24.816 0 35.333" stroke="#c8992d" stroke-width="1px" fill="none"/>
    <path id="path4703" d="m226.58 268.59 5.0318 0.12693c0.83041 5.9366 2.7313 11.138 4.4021 16.556-3.0429-4.7492-5.1443-6.7386-9.4339-16.683z" fill="#f8c785"/>
  </g>
  <metadata>
    <rdf:RDF>
      <cc:Work>
        <dc:format>image/svg+xml</dc:format>
        <dc:type rdf:resource="http://purl.org/dc/dcmitype/StillImage"/>
        <cc:license rdf:resource="http://creativecommons.org/licenses/publicdomain/"/>
        <dc:publisher>
          <cc:Agent rdf:about="http://openclipart.org/">
            <dc:title>Openclipart</dc:title>
          </cc:Agent>
        </dc:publisher>
        <dc:title>Lost girl in the city</dc:title>
        <dc:date>2012-04-21T02:03:23</dc:date>
        <dc:description>Young girl lost in the city</dc:description>
        <dc:source>http://openclipart.org/detail/169623/lost-girl-in-the-city-by-jza</dc:source>
        <dc:creator>
          <cc:Agent>
            <dc:title>JZA</dc:title>
          </cc:Agent>
        </dc:creator>
        <dc:subject>
          <rdf:Bag>
            <rdf:li>Anime</rdf:li>
            <rdf:li>blonde</rdf:li>
            <rdf:li>city</rdf:li>
            <rdf:li>clip art</rdf:li>
            <rdf:li>clipart</rdf:li>
            <rdf:li>girl</rdf:li>
          </rdf:Bag>
        </dc:subject>
      </cc:Work>
      <cc:License rdf:about="http://creativecommons.org/licenses/publicdomain/">
        <cc:permits rdf:resource="http://creativecommons.org/ns#Reproduction"/>
        <cc:permits rdf:resource="http://creativecommons.org/ns#Distribution"/>
        <cc:permits rdf:resource="http://creativecommons.org/ns#DerivativeWorks"/>
      </cc:License>
    </rdf:RDF>
  </metadata>
</svg>
