<svg xmlns="http://www.w3.org/2000/svg" xmlns:xlink="http://www.w3.org/1999/xlink" version="1.1" x="0px" y="0px" viewBox="0 0 100 100" enable-background="new 0 0 100 100" xml:space="preserve"><path fill="#0064a4" d="M50,50"/><path fill="#0064a4" d="M50,50"/><path fill="#0064a4" d="M27.26,11.495l0.002,4c10.515,0.001,19.679,9.983,19.765,10.078l2.976,3.313l2.976-3.313  c0.09-0.101,9.342-10.077,19.764-10.077c5.09,0,9.659,2.301,13.965,7.034c3.397,3.738,4.756,7.962,4.153,12.913  c-1.104,9.069-8.785,20.472-22.211,32.976c-7.571,7.052-15.044,12.628-18.648,15.207c-3.605-2.578-11.079-8.155-18.652-15.206  C17.923,55.915,10.242,44.512,9.139,35.444c-0.602-4.951,0.758-9.175,4.157-12.913c4.308-4.735,8.876-7.036,13.964-7.036  L27.26,11.495 M72.743,11.495c-12.498,0-22.74,11.404-22.74,11.404s-10.244-11.403-22.74-11.404  c-5.435-0.001-11.294,2.155-16.926,8.344c-23.79,26.16,39.666,68.667,39.666,68.667s63.44-42.506,39.666-68.667  C84.038,13.651,78.177,11.495,72.743,11.495L72.743,11.495z" stroke="#0064a4" stroke-width="0.5"/></svg>