<svg xmlns="http://www.w3.org/2000/svg" xmlns:xlink="http://www.w3.org/1999/xlink" version="1.1" x="0px" y="0px" viewBox="-2.5 -2.5 110 110" enable-background="new -2.5 -2.5 110 110" xml:space="preserve"><path style="fill:#0064a4;" d="M76,49l0.2,6.9c0,1.1-0.7,2.8-1.4,3.6L35.9,98.4c-0.3,0.3-0.6,0.3-0.7,0.3c-0.2,0-0.5,0-0.7-0.3L7.1,71.1  c-0.4-0.4-0.4-1.1,0-1.4L46,30.8c0.7-0.7,2.4-1.4,3.5-1.4l24.7,0.7c0.6,0,1.1,0.6,1.2,1.2l0.3,8.7c0.9-0.1,1.7-0.3,2.6-0.4  c0.4-0.1,0.8-0.2,1.2-0.3l-0.2-8.1c-0.1-2.6-2.3-4.8-4.9-4.9l-24.7-0.7c-2.1-0.1-4.9,1-6.4,2.5L4.5,67c-1.9,1.9-1.9,4.9,0,6.8  l27.3,27.3c0.9,0.9,2.1,1.4,3.4,1.4c1.3,0,2.5-0.5,3.4-1.4l38.9-38.9c1.5-1.5,2.6-4.3,2.5-6.4l-0.2-7.4C78.5,48.7,77.2,48.9,76,49z   M60.5,39.4c0.9,0,1.8,0.3,2.6,0.7c1.1,0.1,3,0.3,5.4,0.3c-1.5-2.8-4.5-4.8-7.9-4.8c-4.9,0-9,4-9,9c0,4.9,4,9,9,9  c3.1,0,5.9-1.6,7.5-4.1c-2.1,0-3.9-0.1-5.2-0.3c-0.7,0.3-1.5,0.5-2.3,0.5c-2.8,0-5.2-2.3-5.2-5.2C55.3,41.7,57.6,39.4,60.5,39.4z   M98.9,10.7c-2.4-3.7-6.2-6.4-10.5-7.6c-8.8-2.3-20.1,2-25.5,16.8c-0.4,1,0.2,2.1,1.1,2.4c1,0.4,2.1-0.2,2.4-1.1  C71.3,7.7,80.8,5,87.4,6.8c6.2,1.6,12.1,7.8,10.5,17.5c-1.6,9.5-8,15.5-19.2,17.8c-8.6,1.8-16.9,0.5-17,0.5c-1-0.2-2,0.6-2.2,1.6  c-0.2,1,0.6,2,1.6,2.2c0.2,0,3.3,0.5,7.6,0.5c3.1,0,6.8-0.2,10.7-1c12.7-2.6,20.4-9.8,22.3-20.9C102.5,19.6,101.6,14.7,98.9,10.7z" stroke="#0064a4" stroke-width="0.8"/></svg>